<svg width="1802" height="645" viewBox="0 0 1802 645" fill="none" xmlns="http://www.w3.org/2000/svg">
<rect x="608" y="218" width="577" height="182" rx="22" fill="#393E84"/>
<path d="M669.816 329.296V322H642.6V288.4H649.8V315.472H664.68V288.4H671.88V315.472H676.152V329.296H669.816ZM680.129 322V298.96H686.801V311.92L697.025 298.96H702.833V322H696.161V309.04L685.937 322H680.129ZM720.44 322.672C712.808 322.384 707.144 317.824 707.144 310.48C707.144 303.136 712.808 298.576 720.44 298.288V288.4H726.776V298.288C734.408 298.576 740.072 303.136 740.072 310.48C740.072 317.824 734.408 322.384 726.776 322.672V332.56H720.44V322.672ZM713.816 310.48C713.816 313.936 715.976 316.864 720.44 317.104V303.856C715.976 304.096 713.816 307.024 713.816 310.48ZM726.776 317.104C731.24 316.864 733.4 313.936 733.4 310.48C733.4 307.024 731.24 304.096 726.776 303.856V317.104ZM744.395 332.56V298.96H750.299V302.32C751.787 300.256 754.427 298.288 758.651 298.288C765.947 298.288 769.883 304.192 769.883 310.48C769.883 316.768 765.947 322.672 758.651 322.672C755.003 322.672 752.555 321.184 751.067 319.6V332.56H744.395ZM751.067 313.216C751.979 315.184 754.139 317.056 757.019 317.056C760.859 317.056 763.067 314.08 763.067 310.48C763.067 306.88 760.859 303.904 757.019 303.904C754.139 303.904 751.979 305.776 751.067 307.744V313.216ZM785.725 322.672C779.053 322.672 773.005 318.544 773.005 310.48C773.005 302.416 779.053 298.288 785.725 298.288C792.445 298.288 798.445 302.416 798.445 310.48C798.445 318.544 792.445 322.672 785.725 322.672ZM779.821 310.48C779.821 314.032 781.885 316.672 785.725 316.672C789.565 316.672 791.629 314.032 791.629 310.48C791.629 306.928 789.565 304.288 785.725 304.288C781.885 304.288 779.821 306.928 779.821 310.48ZM802.801 322V298.96H816.529C822.001 298.96 824.113 301.936 824.113 305.056C824.113 307.696 822.817 309.472 820.609 310.336C823.105 311.152 824.641 312.976 824.641 315.76C824.641 319.024 822.721 322 816.913 322H802.801ZM809.473 308.416H814.513C816.097 308.416 817.393 307.792 817.393 306.016C817.393 304.144 816.001 303.52 814.513 303.52H809.473V308.416ZM809.521 317.44H814.945C816.625 317.44 817.969 316.816 817.969 314.992C817.969 313.072 816.577 312.448 814.945 312.448H809.521V317.44ZM835.671 322.672C831.399 322.672 827.655 320.176 827.655 315.616C827.655 309.76 833.127 307.936 837.783 307.936C839.607 307.936 841.575 308.176 843.255 308.56V307.744C843.255 305.488 841.431 303.856 837.831 303.856C834.615 303.856 831.831 304.72 829.671 305.632V299.824C831.543 299.2 835.047 298.288 838.551 298.288C845.511 298.288 849.927 301.12 849.927 308.704V316.048C849.927 317.248 850.695 317.584 851.559 317.584C851.943 317.584 852.375 317.488 852.759 317.392V321.76C851.751 322.144 850.407 322.432 849.063 322.432C846.855 322.432 845.079 321.616 844.119 319.936L844.023 319.792C841.815 321.568 839.127 322.672 835.671 322.672ZM834.519 315.088C834.519 316.816 836.055 317.92 838.071 317.92C839.943 317.92 841.719 317.296 843.255 315.952V312.448C842.199 312.208 840.663 311.968 839.319 311.968C836.919 311.968 834.519 312.736 834.519 315.088ZM870.356 322V315.136H866.612L861.524 322H854.036L860.036 314.224C857.3 313.024 855.332 310.576 855.332 307.024C855.332 302.704 858.5 298.96 864.548 298.96H877.028V322H870.356ZM862.148 307.216C862.148 309.088 863.54 310.144 865.94 310.144H870.356V304.24H865.94C863.54 304.24 862.148 305.296 862.148 307.216ZM902.1 322.672C898.788 322.672 895.428 321.904 892.596 320.512V313.408C894.804 315.328 897.924 316.144 901.044 316.144C906.564 316.144 911.94 314.368 912.948 308.272H897.78V302.08H912.852C911.652 296.128 906.66 294.256 901.188 294.256C898.212 294.256 894.852 295.024 892.596 296.8V289.888C895.476 288.448 898.836 287.728 902.244 287.728C911.172 287.728 920.244 293.152 920.244 305.632C920.244 317.584 911.124 322.672 902.1 322.672ZM924.582 322V298.96H931.254V307.552H934.038L939.846 298.96H947.382L939.462 310.336L948.054 322H940.566L933.942 312.88H931.254V322H924.582ZM961.178 322.672C954.506 322.672 948.458 318.544 948.458 310.48C948.458 302.416 954.506 298.288 961.178 298.288C967.898 298.288 973.898 302.416 973.898 310.48C973.898 318.544 967.898 322.672 961.178 322.672ZM955.274 310.48C955.274 314.032 957.338 316.672 961.178 316.672C965.018 316.672 967.082 314.032 967.082 310.48C967.082 306.928 965.018 304.288 961.178 304.288C957.338 304.288 955.274 306.928 955.274 310.48ZM989.534 322.672C983.246 322.672 976.958 319.024 976.958 310.816C976.958 301.984 983.582 298.24 989.966 298.24C992.51 298.24 995.006 298.816 997.07 299.92V305.776C995.438 304.72 993.134 304.048 990.926 304.048C987.326 304.048 983.774 305.824 983.774 310.48C983.774 314.896 987.23 316.864 990.83 316.864C993.23 316.864 995.63 316.24 997.31 315.232V321.136C995.054 322.096 992.462 322.672 989.534 322.672ZM1001.83 322V298.96H1008.5V311.92L1018.73 298.96H1024.54V322H1017.86V309.04L1007.64 322H1001.83ZM1041.47 322.672C1035.18 322.672 1028.9 319.024 1028.9 310.816C1028.9 301.984 1035.52 298.24 1041.9 298.24C1044.45 298.24 1046.94 298.816 1049.01 299.92V305.776C1047.38 304.72 1045.07 304.048 1042.86 304.048C1039.26 304.048 1035.71 305.824 1035.71 310.48C1035.71 314.896 1039.17 316.864 1042.77 316.864C1045.17 316.864 1047.57 316.24 1049.25 315.232V321.136C1046.99 322.096 1044.4 322.672 1041.47 322.672ZM1059 322V304.576H1051.71V298.96H1073.02V304.576H1065.67V322H1059ZM1088.13 322.672C1080.83 322.672 1074.79 318.496 1074.79 310.48C1074.79 301.792 1081.46 298.288 1086.64 298.288C1096.19 298.288 1099.27 305.824 1097.73 312.64H1081.51C1082.27 316 1085.83 317.344 1089.62 317.344C1092.26 317.344 1094.61 316.816 1096.58 316V321.232C1094.42 322.144 1091.59 322.672 1088.13 322.672ZM1081.46 308.32H1091.63C1091.92 306.736 1091.01 303.376 1086.88 303.376C1084.05 303.376 1081.55 305.152 1081.46 308.32ZM1102.38 322V298.96H1108.76L1115.91 310.384L1123.11 298.96H1129.5V322H1123.02V308.464L1117.59 317.008H1114.28L1108.86 308.464V322H1102.38ZM1141.58 322.672C1137.31 322.672 1133.56 320.176 1133.56 315.616C1133.56 309.76 1139.03 307.936 1143.69 307.936C1145.51 307.936 1147.48 308.176 1149.16 308.56V307.744C1149.16 305.488 1147.34 303.856 1143.74 303.856C1140.52 303.856 1137.74 304.72 1135.58 305.632V299.824C1137.45 299.2 1140.95 298.288 1144.46 298.288C1151.42 298.288 1155.83 301.12 1155.83 308.704V316.048C1155.83 317.248 1156.6 317.584 1157.47 317.584C1157.85 317.584 1158.28 317.488 1158.67 317.392V321.76C1157.66 322.144 1156.31 322.432 1154.97 322.432C1152.76 322.432 1150.99 321.616 1150.03 319.936L1149.93 319.792C1147.72 321.568 1145.03 322.672 1141.58 322.672ZM1140.43 315.088C1140.43 316.816 1141.96 317.92 1143.98 317.92C1145.85 317.92 1147.63 317.296 1149.16 315.952V312.448C1148.11 312.208 1146.57 311.968 1145.23 311.968C1142.83 311.968 1140.43 312.736 1140.43 315.088Z" fill="white"/>
<rect x="258" width="577" height="182" rx="22" fill="#393E84" fill-opacity="0.73"/>
<rect x="918" width="577" height="182" rx="22" fill="#393E84" fill-opacity="0.73"/>
<rect x="918" y="460" width="577" height="182" rx="22" fill="#393E84" fill-opacity="0.73"/>
<rect x="258" y="463" width="577" height="182" rx="22" fill="#393E84" fill-opacity="0.73"/>
<rect y="218" width="577" height="182" rx="22" fill="#393E84" fill-opacity="0.73"/>
<rect x="1225" y="218" width="577" height="182" rx="22" fill="#393E84" fill-opacity="0.73"/>
<path d="M460.7 104V78.8H478.448V83.552H466.1V88.916H477.368V93.668H466.1V99.248H478.664V104H460.7ZM482.954 104V78.8H493.322C498.218 78.8 503.33 80.636 503.33 87.008C503.33 91.328 500.882 93.524 497.858 94.496L505.346 104H499.118L492.314 95.18H488.354V104H482.954ZM488.354 90.68H493.538C495.842 90.68 497.786 89.672 497.786 87.116C497.786 84.524 495.842 83.552 493.538 83.552H488.354V90.68ZM508.337 104V78.8H517.841C523.925 78.8 528.713 80.744 528.713 87.26C528.713 93.776 523.925 95.72 517.841 95.72H513.737V104H508.337ZM513.737 90.968H518.093C520.829 90.968 523.169 90.212 523.169 87.26C523.169 84.308 520.829 83.552 518.093 83.552H513.737V90.968ZM546.591 102.581V84.4787H551.167V102.581H546.591ZM539.828 95.8182V91.2415H557.93V95.8182H539.828ZM571.794 104V78.8H576.798L585.438 91.904L594.042 78.8H599.046V104H593.646V88.52L586.986 98.6H583.854L577.194 88.484V104H571.794ZM604.454 104V78.8H609.458L618.098 91.904L626.702 78.8H631.706V104H626.306V88.52L619.646 98.6H616.514L609.854 88.484V104H604.454ZM645.466 104.504C641.974 104.504 638.734 103.676 636.142 102.236V97.088C639.022 98.996 642.19 99.752 645.07 99.752C647.986 99.752 649.75 99.14 649.75 97.34C649.75 92.624 635.998 94.388 635.998 85.46C635.998 80.6 640.246 78.296 645.214 78.296C648.202 78.296 651.262 79.016 653.386 80.24V85.316C651.262 83.804 648.454 83.012 645.646 83.048C642.874 83.084 641.542 83.84 641.542 85.388C641.542 89.744 655.294 88.124 655.294 97.088C655.294 102.74 650.758 104.504 645.466 104.504Z" fill="black"/>
<path d="M198.904 322.504C192.172 322.504 185.296 318.472 185.296 309.688C185.332 300.472 192.1 296.296 198.832 296.296C201.352 296.296 203.872 296.836 206.068 297.916V303.1C204.412 301.804 202.072 301.12 199.732 301.12C195.34 301.12 190.876 303.64 190.84 309.688C190.84 315.232 195.376 317.68 199.732 317.68C202.324 317.68 204.7 316.924 206.248 315.592V320.884C204.088 321.928 201.568 322.504 198.904 322.504ZM210.255 322V296.8H220.623C225.519 296.8 230.631 298.636 230.631 305.008C230.631 309.328 228.183 311.524 225.159 312.496L232.647 322H226.419L219.615 313.18H215.655V322H210.255ZM215.655 308.68H220.839C223.143 308.68 225.087 307.672 225.087 305.116C225.087 302.524 223.143 301.552 220.839 301.552H215.655V308.68ZM235.638 322V296.8H240.642L249.282 309.904L257.886 296.8H262.89V322H257.49V306.52L250.83 316.6H247.698L241.038 306.484V322H235.638ZM283.524 320.581V302.479H288.101V320.581H283.524ZM276.761 313.818V309.241H294.864V313.818H276.761ZM317.079 322.504C313.587 322.504 310.347 321.676 307.755 320.236V315.088C310.635 316.996 313.803 317.752 316.683 317.752C319.599 317.752 321.363 317.14 321.363 315.34C321.363 310.624 307.611 312.388 307.611 303.46C307.611 298.6 311.859 296.296 316.827 296.296C319.815 296.296 322.875 297.016 324.999 298.24V303.316C322.875 301.804 320.067 301.012 317.259 301.048C314.487 301.084 313.155 301.84 313.155 303.388C313.155 307.744 326.907 306.124 326.907 315.088C326.907 320.74 322.371 322.504 317.079 322.504ZM330.665 322V296.8H335.669L344.309 309.904L352.913 296.8H357.917V322H352.517V306.52L345.857 316.6H342.725L336.065 306.484V322H330.665ZM363.325 322V296.8H368.329L376.969 309.904L385.573 296.8H390.577V322H385.177V306.52L378.517 316.6H375.385L368.725 306.484V322H363.325Z" fill="black"/>
<path d="M1126.21 104V83.696H1118.47V78.8H1139.31V83.696H1131.61V104H1126.21ZM1142.5 104V78.8H1147.5L1156.14 91.904L1164.74 78.8H1169.75V104H1164.35V88.52L1157.69 98.6H1154.56L1147.9 88.484V104H1142.5ZM1183.51 104.504C1180.02 104.504 1176.78 103.676 1174.19 102.236V97.088C1177.07 98.996 1180.23 99.752 1183.11 99.752C1186.03 99.752 1187.79 99.14 1187.79 97.34C1187.79 92.624 1174.04 94.388 1174.04 85.46C1174.04 80.6 1178.29 78.296 1183.26 78.296C1186.25 78.296 1189.31 79.016 1191.43 80.24V85.316C1189.31 83.804 1186.5 83.012 1183.69 83.048C1180.92 83.084 1179.59 83.84 1179.59 85.388C1179.59 89.744 1193.34 88.124 1193.34 97.088C1193.34 102.74 1188.8 104.504 1183.51 104.504ZM1212.32 102.581V84.4787H1216.9V102.581H1212.32ZM1205.56 95.8182V91.2415H1223.66V95.8182H1205.56ZM1241.83 104L1234.06 78.8H1239.92L1244.89 97.844L1250.33 78.8H1255.08L1260.55 97.844L1265.52 78.8H1271.39L1263.61 104H1257.71L1252.7 86.828L1247.7 104H1241.83ZM1274.33 104V78.8H1279.34L1287.98 91.904L1296.58 78.8H1301.58V104H1296.18V88.52L1289.52 98.6H1286.39L1279.73 88.484V104H1274.33ZM1315.34 104.504C1311.85 104.504 1308.61 103.676 1306.02 102.236V97.088C1308.9 98.996 1312.07 99.752 1314.95 99.752C1317.86 99.752 1319.63 99.14 1319.63 97.34C1319.63 92.624 1305.88 94.388 1305.88 85.46C1305.88 80.6 1310.12 78.296 1315.09 78.296C1318.08 78.296 1321.14 79.016 1323.26 80.24V85.316C1321.14 83.804 1318.33 83.012 1315.52 83.048C1312.75 83.084 1311.42 83.84 1311.42 85.388C1311.42 89.744 1325.17 88.124 1325.17 97.088C1325.17 102.74 1320.64 104.504 1315.34 104.504Z" fill="black"/>
<path d="M1382.16 322.504C1376.69 322.504 1372.15 319.372 1372.15 313.36C1372.15 306.844 1377.16 304.216 1381.04 304.216C1388.21 304.216 1390.51 309.868 1389.36 314.98H1377.19C1377.77 317.5 1380.43 318.508 1383.28 318.508C1385.26 318.508 1387.02 318.112 1388.5 317.5V321.424C1386.88 322.108 1384.75 322.504 1382.16 322.504ZM1377.16 311.74H1384.79C1385 310.552 1384.32 308.032 1381.22 308.032C1379.1 308.032 1377.23 309.364 1377.16 311.74ZM1393.14 322V296.8H1402.57C1411.54 296.8 1415.79 302.092 1415.79 309.4C1415.79 316.708 1411.54 322 1402.57 322H1393.14ZM1398.54 317.248H1402.57C1407.54 317.248 1410.28 314.584 1410.28 309.4C1410.28 304.216 1407.54 301.552 1402.57 301.552H1398.54V317.248ZM1427.75 322.504C1422.74 322.504 1418.21 319.408 1418.21 313.36C1418.21 307.312 1422.74 304.216 1427.75 304.216C1432.79 304.216 1437.29 307.312 1437.29 313.36C1437.29 319.408 1432.79 322.504 1427.75 322.504ZM1423.32 313.36C1423.32 316.024 1424.87 318.004 1427.75 318.004C1430.63 318.004 1432.17 316.024 1432.17 313.36C1432.17 310.696 1430.63 308.716 1427.75 308.716C1424.87 308.716 1423.32 310.696 1423.32 313.36ZM1437.59 322L1444.18 313.288L1437.91 304.72H1443.56L1447.06 309.904L1450.55 304.72H1456.2L1449.97 313.288L1456.56 322H1450.87L1447.06 316.708L1443.24 322H1437.59ZM1474.53 320.581V302.479H1479.11V320.581H1474.53ZM1467.77 313.818V309.241H1485.87V313.818H1467.77ZM1508.2 322.504C1502.72 322.504 1498.19 319.372 1498.19 313.36C1498.19 306.844 1503.19 304.216 1507.08 304.216C1514.24 304.216 1516.55 309.868 1515.4 314.98H1503.23C1503.8 317.5 1506.47 318.508 1509.31 318.508C1511.29 318.508 1513.06 318.112 1514.53 317.5V321.424C1512.91 322.108 1510.79 322.504 1508.2 322.504ZM1503.19 311.74H1510.82C1511.04 310.552 1510.36 308.032 1507.26 308.032C1505.14 308.032 1503.26 309.364 1503.19 311.74ZM1527.53 322.504C1524.04 322.504 1520.8 321.676 1518.2 320.236V315.088C1521.08 316.996 1524.25 317.752 1527.13 317.752C1530.05 317.752 1531.81 317.14 1531.81 315.34C1531.81 310.624 1518.06 312.388 1518.06 303.46C1518.06 298.6 1522.31 296.296 1527.28 296.296C1530.26 296.296 1533.32 297.016 1535.45 298.24V303.316C1533.32 301.804 1530.52 301.012 1527.71 301.048C1524.94 301.084 1523.6 301.84 1523.6 303.388C1523.6 307.744 1537.36 306.124 1537.36 315.088C1537.36 320.74 1532.82 322.504 1527.53 322.504ZM1551.91 322.504C1546.33 322.504 1540.86 319.984 1540.86 312.532V296.8H1546.26V312.244C1546.26 316.204 1548.57 317.608 1551.91 317.608C1555.26 317.608 1557.57 316.204 1557.57 312.244V296.8H1562.97V312.532C1562.97 319.984 1557.49 322.504 1551.91 322.504ZM1568.11 322V296.8H1577.62C1583.7 296.8 1588.49 298.744 1588.49 305.26C1588.49 311.776 1583.7 313.72 1577.62 313.72H1573.51V322H1568.11ZM1573.51 308.968H1577.87C1580.61 308.968 1582.95 308.212 1582.95 305.26C1582.95 302.308 1580.61 301.552 1577.87 301.552H1573.51V308.968ZM1592.09 322V296.8H1601.59C1607.68 296.8 1612.47 298.744 1612.47 305.26C1612.47 311.776 1607.68 313.72 1601.59 313.72H1597.49V322H1592.09ZM1597.49 308.968H1601.85C1604.58 308.968 1606.92 308.212 1606.92 305.26C1606.92 302.308 1604.58 301.552 1601.85 301.552H1597.49V308.968ZM1616.07 322V296.8H1621.47V317.104H1633.85V322H1616.07ZM1640.07 322V313.072L1630.21 296.8H1636.33L1642.77 308.068L1649.18 296.8H1655.3L1645.44 313.072V322H1640.07Z" fill="black"/>
<path d="M1161.7 569V543.8H1167.1V553.952H1178.4V543.8H1183.8V569H1178.4V558.848H1167.1V569H1161.7ZM1189.19 569V543.8H1199.56C1204.46 543.8 1209.57 545.636 1209.57 552.008C1209.57 556.328 1207.12 558.524 1204.1 559.496L1211.58 569H1205.36L1198.55 560.18H1194.59V569H1189.19ZM1194.59 555.68H1199.78C1202.08 555.68 1204.02 554.672 1204.02 552.116C1204.02 549.524 1202.08 548.552 1199.78 548.552H1194.59V555.68ZM1214.58 569V543.8H1219.58L1228.22 556.904L1236.82 543.8H1241.83V569H1236.43V553.52L1229.77 563.6H1226.64L1219.98 553.484V569H1214.58Z" fill="black"/>
<path d="M280.7 572V546.8H298.484V551.696H286.1V557.528H297.44V562.424H286.1V572H280.7ZM301.816 572V554.72H306.82V572H301.816ZM301.384 548.996C301.384 547.052 302.788 546.188 304.336 546.188C305.92 546.188 307.252 547.052 307.252 548.996C307.252 550.976 305.92 551.84 304.336 551.84C302.788 551.84 301.384 550.976 301.384 548.996ZM311.132 572V554.72H315.56V556.916C316.892 555.368 318.836 554.216 321.32 554.216C325.856 554.216 328.34 557.312 328.34 561.308V572H323.336V561.956C323.336 559.652 321.896 558.572 319.988 558.572C318.224 558.572 316.892 559.688 316.136 560.732V572H311.132ZM337.226 572.504C334.022 572.504 331.214 570.632 331.214 567.212C331.214 562.82 335.318 561.452 338.81 561.452C340.178 561.452 341.654 561.632 342.914 561.92V561.308C342.914 559.616 341.546 558.392 338.846 558.392C336.434 558.392 334.346 559.04 332.726 559.724V555.368C334.13 554.9 336.758 554.216 339.386 554.216C344.606 554.216 347.918 556.34 347.918 562.028V567.536C347.918 568.436 348.494 568.688 349.142 568.688C349.43 568.688 349.754 568.616 350.042 568.544V571.82C349.286 572.108 348.278 572.324 347.27 572.324C345.614 572.324 344.282 571.712 343.562 570.452L343.49 570.344C341.834 571.676 339.818 572.504 337.226 572.504ZM336.362 566.816C336.362 568.112 337.514 568.94 339.026 568.94C340.43 568.94 341.762 568.472 342.914 567.464V564.836C342.122 564.656 340.97 564.476 339.962 564.476C338.162 564.476 336.362 565.052 336.362 566.816ZM352.476 572V554.72H356.904V556.916C358.236 555.368 360.18 554.216 362.664 554.216C367.2 554.216 369.684 557.312 369.684 561.308V572H364.68V561.956C364.68 559.652 363.24 558.572 361.332 558.572C359.568 558.572 358.236 559.688 357.48 560.732V572H352.476ZM382.17 572.504C377.454 572.504 372.738 569.768 372.738 563.612C372.738 556.988 377.706 554.18 382.494 554.18C384.402 554.18 386.274 554.612 387.822 555.44V559.832C386.598 559.04 384.87 558.536 383.214 558.536C380.514 558.536 377.85 559.868 377.85 563.36C377.85 566.672 380.442 568.148 383.142 568.148C384.942 568.148 386.742 567.68 388.002 566.924V571.352C386.31 572.072 384.366 572.504 382.17 572.504ZM400.359 572.504C394.887 572.504 390.351 569.372 390.351 563.36C390.351 556.844 395.355 554.216 399.243 554.216C406.407 554.216 408.711 559.868 407.559 564.98H395.391C395.967 567.5 398.631 568.508 401.475 568.508C403.455 568.508 405.219 568.112 406.695 567.5V571.424C405.075 572.108 402.951 572.504 400.359 572.504ZM395.355 561.74H402.987C403.203 560.552 402.519 558.032 399.423 558.032C397.299 558.032 395.427 559.364 395.355 561.74ZM426.848 570.581V552.479H431.425V570.581H426.848ZM420.086 563.818V559.241H438.188V563.818H420.086ZM448.405 572L458.665 546.8H464.569L474.829 572H469.213L467.377 567.32H455.857L454.021 572H448.405ZM457.549 562.784H465.685L462.157 553.82C461.977 553.316 461.833 552.812 461.617 551.948C461.401 552.812 461.257 553.316 461.041 553.82L457.549 562.784ZM485.037 572.504C480.321 572.504 475.605 569.768 475.605 563.612C475.605 556.988 480.573 554.18 485.361 554.18C487.269 554.18 489.141 554.612 490.689 555.44V559.832C489.465 559.04 487.737 558.536 486.081 558.536C483.381 558.536 480.717 559.868 480.717 563.36C480.717 566.672 483.309 568.148 486.009 568.148C487.809 568.148 489.609 567.68 490.869 566.924V571.352C489.177 572.072 487.233 572.504 485.037 572.504ZM502.65 572.504C497.934 572.504 493.218 569.768 493.218 563.612C493.218 556.988 498.186 554.18 502.974 554.18C504.882 554.18 506.754 554.612 508.302 555.44V559.832C507.078 559.04 505.35 558.536 503.694 558.536C500.994 558.536 498.33 559.868 498.33 563.36C498.33 566.672 500.922 568.148 503.622 568.148C505.422 568.148 507.222 567.68 508.482 566.924V571.352C506.79 572.072 504.846 572.504 502.65 572.504ZM520.372 572.504C515.368 572.504 510.832 569.408 510.832 563.36C510.832 557.312 515.368 554.216 520.372 554.216C525.412 554.216 529.912 557.312 529.912 563.36C529.912 569.408 525.412 572.504 520.372 572.504ZM515.944 563.36C515.944 566.024 517.492 568.004 520.372 568.004C523.252 568.004 524.8 566.024 524.8 563.36C524.8 560.696 523.252 558.716 520.372 558.716C517.492 558.716 515.944 560.696 515.944 563.36ZM539.983 572.504C535.339 572.504 532.999 569.408 532.999 565.412V554.72H538.003V564.764C538.003 567.068 539.263 568.148 541.315 568.148C543.079 568.148 544.447 567.032 545.167 565.988V554.72H550.171V572H545.743V569.804C544.411 571.352 542.467 572.504 539.983 572.504ZM554.413 572V554.72H558.841V556.916C560.173 555.368 562.117 554.216 564.601 554.216C569.137 554.216 571.621 557.312 571.621 561.308V572H566.617V561.956C566.617 559.652 565.177 558.572 563.269 558.572C561.505 558.572 560.173 559.688 559.417 560.732V572H554.413ZM583.101 572.504C579.753 572.504 576.873 570.956 576.873 566.672V558.932H573.957V554.72H576.873V549.68L581.877 548.492V554.72H587.313V558.932H581.877V565.7C581.877 567.5 582.741 568.256 584.613 568.256C585.765 568.256 586.737 568.076 587.745 567.716V571.748C586.413 572.216 584.829 572.504 583.101 572.504ZM590.66 572V554.72H595.664V572H590.66ZM590.228 548.996C590.228 547.052 591.632 546.188 593.18 546.188C594.764 546.188 596.096 547.052 596.096 548.996C596.096 550.976 594.764 551.84 593.18 551.84C591.632 551.84 590.228 550.976 590.228 548.996ZM599.976 572V554.72H604.404V556.916C605.736 555.368 607.68 554.216 610.164 554.216C614.7 554.216 617.184 557.312 617.184 561.308V572H612.18V561.956C612.18 559.652 610.74 558.572 608.832 558.572C607.068 558.572 605.736 559.688 604.98 560.732V572H599.976ZM629.418 580.424C626.718 580.424 624.198 579.812 622.11 578.804V574.412C624.054 575.564 626.394 576.212 628.734 576.212C631.83 576.212 634.386 575.168 634.35 571.748V570.164C633.234 571.388 631.398 572.504 628.698 572.504C623.19 572.504 620.238 568.076 620.238 563.36C620.238 558.644 623.19 554.216 628.698 554.216C631.866 554.216 633.846 555.692 634.926 557.24V554.72H639.354V571.532C639.354 578.12 634.494 580.424 629.418 580.424ZM625.35 563.36C625.35 566.06 627.042 568.292 629.886 568.292C632.046 568.292 633.666 566.96 634.35 565.52V561.308C633.666 559.832 632.046 558.428 629.886 558.428C627.042 558.428 625.35 560.66 625.35 563.36ZM659.663 572.384C657.856 572.384 656.296 572.06 654.984 571.412C653.671 570.764 652.661 569.886 651.954 568.778C651.255 567.662 650.906 566.418 650.906 565.045C650.906 564.023 651.11 563.115 651.519 562.322C651.928 561.53 652.499 560.801 653.232 560.136C653.965 559.463 654.817 558.794 655.789 558.129L660.864 554.793C661.521 554.375 662.002 553.936 662.309 553.476C662.616 553.007 662.769 552.5 662.769 551.955C662.769 551.435 662.56 550.953 662.143 550.51C661.725 550.067 661.133 549.849 660.366 549.858C659.854 549.858 659.411 549.973 659.036 550.203C658.661 550.425 658.367 550.719 658.154 551.085C657.95 551.443 657.847 551.844 657.847 552.287C657.847 552.832 658.001 553.386 658.308 553.949C658.614 554.511 659.023 555.108 659.535 555.739C660.046 556.361 660.604 557.034 661.21 557.759L673.623 572H667.947L657.592 560.469C656.91 559.693 656.228 558.884 655.546 558.04C654.873 557.187 654.31 556.284 653.859 555.33C653.407 554.366 653.181 553.322 653.181 552.197C653.181 550.928 653.475 549.786 654.063 548.771C654.66 547.757 655.495 546.956 656.569 546.368C657.643 545.771 658.896 545.473 660.327 545.473C661.725 545.473 662.931 545.759 663.945 546.33C664.968 546.892 665.752 547.642 666.298 548.58C666.852 549.509 667.129 550.531 667.129 551.648C667.129 552.884 666.822 554.004 666.208 555.01C665.603 556.007 664.751 556.902 663.651 557.695L658.308 561.543C657.583 562.071 657.046 562.612 656.697 563.166C656.356 563.712 656.185 564.236 656.185 564.739C656.185 565.361 656.339 565.919 656.646 566.413C656.952 566.908 657.387 567.3 657.95 567.589C658.512 567.871 659.173 568.011 659.931 568.011C660.852 568.011 661.759 567.803 662.654 567.385C663.558 566.959 664.376 566.358 665.109 565.582C665.85 564.798 666.442 563.869 666.886 562.795C667.329 561.722 667.55 560.533 667.55 559.229H672.063C672.063 560.831 671.888 562.276 671.539 563.562C671.19 564.841 670.704 565.957 670.082 566.912C669.46 567.858 668.748 568.634 667.947 569.239C667.691 569.401 667.444 569.554 667.205 569.699C666.967 569.844 666.719 569.997 666.464 570.159C665.492 570.943 664.406 571.51 663.204 571.859C662.011 572.209 660.83 572.384 659.663 572.384ZM684.399 572V546.8H695.415C700.815 546.8 704.163 548.852 704.163 553.172C704.163 556.088 702.579 557.924 700.311 558.68C702.795 559.4 705.171 561.236 705.171 564.944C705.171 570.668 699.627 572 695.235 572H684.399ZM689.799 567.572H695.163C697.575 567.572 699.699 567.104 699.699 564.368C699.699 561.704 697.611 561.128 695.451 561.128H689.799V567.572ZM689.799 556.952L695.199 556.988C697.287 556.988 698.727 556.052 698.727 554.108C698.727 552.128 697.323 551.228 694.911 551.228H689.799V556.952ZM715.237 572.504C710.593 572.504 708.253 569.408 708.253 565.412V554.72H713.257V564.764C713.257 567.068 714.517 568.148 716.569 568.148C718.333 568.148 719.701 567.032 720.421 565.988V554.72H725.425V572H720.997V569.804C719.665 571.352 717.721 572.504 715.237 572.504ZM729.703 572V554.72H734.707V572H729.703ZM729.271 548.996C729.271 547.052 730.675 546.188 732.223 546.188C733.807 546.188 735.139 547.052 735.139 548.996C735.139 550.976 733.807 551.84 732.223 551.84C730.675 551.84 729.271 550.976 729.271 548.996ZM739.055 572V545.72H744.059V572H739.055ZM755.858 572.504C750.35 572.504 747.398 568.076 747.398 563.36C747.398 558.644 750.35 554.216 755.858 554.216C758.558 554.216 760.394 555.332 761.51 556.52V546.8H766.514V572H762.086V569.48C761.006 571.028 759.026 572.504 755.858 572.504ZM752.51 563.36C752.51 566.06 754.202 568.292 757.046 568.292C759.206 568.292 760.826 566.888 761.51 565.412V561.308C760.826 559.832 759.206 558.428 757.046 558.428C754.202 558.428 752.51 560.66 752.51 563.36ZM770.801 572V554.72H775.805V572H770.801ZM770.369 548.996C770.369 547.052 771.773 546.188 773.321 546.188C774.905 546.188 776.237 547.052 776.237 548.996C776.237 550.976 774.905 551.84 773.321 551.84C771.773 551.84 770.369 550.976 770.369 548.996ZM780.116 572V554.72H784.544V556.916C785.876 555.368 787.82 554.216 790.304 554.216C794.84 554.216 797.324 557.312 797.324 561.308V572H792.32V561.956C792.32 559.652 790.88 558.572 788.972 558.572C787.208 558.572 785.876 559.688 785.12 560.732V572H780.116ZM809.559 580.424C806.859 580.424 804.339 579.812 802.251 578.804V574.412C804.195 575.564 806.535 576.212 808.875 576.212C811.971 576.212 814.527 575.168 814.491 571.748V570.164C813.375 571.388 811.539 572.504 808.839 572.504C803.331 572.504 800.379 568.076 800.379 563.36C800.379 558.644 803.331 554.216 808.839 554.216C812.007 554.216 813.987 555.692 815.067 557.24V554.72H819.495V571.532C819.495 578.12 814.635 580.424 809.559 580.424ZM805.491 563.36C805.491 566.06 807.183 568.292 810.027 568.292C812.187 568.292 813.807 566.96 814.491 565.52V561.308C813.807 559.832 812.187 558.428 810.027 558.428C807.183 558.428 805.491 560.66 805.491 563.36Z" fill="black"/>
</svg>
