<svg width="1071" height="560" viewBox="0 0 1071 560" fill="none" xmlns="http://www.w3.org/2000/svg">
<rect width="420" height="98" fill="#393E84"/>
<path d="M148.944 68V45.6H158.128C162.704 45.6 165.744 47.488 165.744 51.264C165.744 54.112 163.92 55.712 162.16 56.224C164.016 56.736 166.64 58.208 166.64 61.856C166.64 66.944 161.648 68 158.384 68H148.944ZM151.632 65.44H157.84C160.656 65.44 163.92 65.248 163.92 61.568C163.92 58.08 160.72 57.696 158.576 57.696H151.632V65.44ZM151.632 55.136H158.64C160.976 55.136 163.024 54.208 163.024 51.648C163.024 48.992 161.072 48.16 157.904 48.16H151.632V55.136ZM170.306 68V52.64H172.866V63.872L182.274 52.64H184.45V68H181.89V56.768L172.482 68H170.306ZM187.645 72.16V65.696H189.693C191.613 62.304 192.381 58.368 192.317 52.64H203.773V65.696H206.013V72.16H203.517V68H190.141V72.16H187.645ZM192.477 65.696H201.213V54.944H194.781C194.653 59.552 193.885 62.752 192.477 65.696ZM216.574 68.384C212.03 68.384 208.062 65.792 208.062 60.32C208.062 54.944 212.062 52.256 215.71 52.256C221.63 52.256 223.806 57.088 222.846 61.44H210.622C210.942 64.672 213.854 66.016 216.958 66.016C218.846 66.016 220.702 65.504 222.014 64.768V67.264C220.606 68 218.59 68.384 216.574 68.384ZM210.622 59.2H220.574C220.798 57.568 219.774 54.624 215.87 54.624C213.246 54.624 210.814 56.192 210.622 59.2ZM226.649 68V52.64H229.209V59.136H238.105V52.64H240.665V68H238.105V61.504H229.209V68H226.649ZM245.399 68V52.64H247.959V63.872L257.367 52.64H259.543V68H256.983V56.768L247.575 68H245.399ZM271.73 68.384C267.186 68.384 263.218 65.792 263.218 60.32C263.218 54.944 267.218 52.256 270.866 52.256C276.786 52.256 278.962 57.088 278.002 61.44H265.778C266.098 64.672 269.01 66.016 272.114 66.016C274.002 66.016 275.858 65.504 277.17 64.768V67.264C275.762 68 273.746 68.384 271.73 68.384ZM265.778 59.2H275.73C275.954 57.568 274.93 54.624 271.026 54.624C268.402 54.624 265.97 56.192 265.778 59.2Z" fill="white"/>
<rect x="420" width="651" height="98" fill="white"/>
<path d="M446.208 60V43.2H457.848V45.12H448.224V49.992H452.688C455.784 49.992 459.144 50.904 459.144 55.008C459.144 59.112 455.784 60 452.688 60H446.208ZM448.224 58.08H452.784C454.92 58.08 457.104 57.744 457.104 55.008C457.104 52.248 454.896 51.912 452.784 51.912H448.224V58.08ZM467.352 60.288C463.944 60.288 460.968 58.344 460.968 54.24C460.968 50.208 463.968 48.192 466.704 48.192C471.144 48.192 472.776 51.816 472.056 55.08H462.888C463.128 57.504 465.312 58.512 467.64 58.512C469.056 58.512 470.448 58.128 471.432 57.576V59.448C470.376 60 468.864 60.288 467.352 60.288ZM462.888 53.4H470.352C470.52 52.176 469.752 49.968 466.824 49.968C464.856 49.968 463.032 51.144 462.888 53.4ZM478.341 60.288C476.709 60.288 475.173 59.928 474.093 59.4V57.576C475.077 58.104 476.709 58.512 478.101 58.512C479.925 58.512 481.605 58.176 481.605 56.688C481.605 55.272 480.213 55.032 479.061 55.032H476.541V53.256H479.061C480.357 53.256 481.365 52.872 481.365 51.768C481.365 50.496 479.997 49.944 478.197 49.944C476.829 49.944 475.341 50.328 474.285 50.856V49.056C475.437 48.528 476.877 48.168 478.413 48.168C481.629 48.168 483.285 49.488 483.285 51.504C483.285 52.896 482.445 53.808 481.149 54.096C482.445 54.432 483.525 55.416 483.525 56.904C483.525 59.088 481.533 60.288 478.341 60.288ZM492.323 60V48.48H494.243V56.904L501.299 48.48H502.931V60H501.011V51.576L493.955 60H492.323ZM506.479 60V48.48H508.399V53.352H515.071V48.48H516.991V60H515.071V55.128H508.399V60H506.479ZM530.526 63.12V60H520.542V48.48H522.462V58.224H528.774V48.48H530.694V58.224H532.398V63.12H530.526ZM534.956 60V48.48H536.876V56.904L543.932 48.48H545.564V60H543.644V51.576L536.588 60H534.956ZM547.96 63.12V58.272H549.496C550.936 55.728 551.512 52.776 551.464 48.48H560.056V58.272H561.736V63.12H559.864V60H549.832V63.12H547.96ZM551.584 58.272H558.136V50.208H553.312C553.216 53.664 552.64 56.064 551.584 58.272ZM569.657 60.288C566.249 60.288 563.273 58.344 563.273 54.24C563.273 50.208 566.273 48.192 569.009 48.192C573.449 48.192 575.081 51.816 574.361 55.08H565.193C565.433 57.504 567.617 58.512 569.945 58.512C571.361 58.512 572.753 58.128 573.737 57.576V59.448C572.681 60 571.169 60.288 569.657 60.288ZM565.193 53.4H572.657C572.825 52.176 572.057 49.968 569.129 49.968C567.161 49.968 565.337 51.144 565.193 53.4ZM577.214 60V48.48H579.134V53.352H585.806V48.48H587.726V60H585.806V55.128H579.134V60H577.214ZM594.156 60V50.256H589.908V48.48H600.3V50.256H596.076V60H594.156ZM607.456 60.288C604.336 60.288 601.312 58.176 601.312 54.24C601.312 50.304 604.336 48.192 607.456 48.192C610.6 48.192 613.6 50.304 613.6 54.24C613.6 58.176 610.6 60.288 607.456 60.288ZM603.232 54.24C603.232 56.904 605.104 58.464 607.456 58.464C609.808 58.464 611.68 56.904 611.68 54.24C611.68 51.576 609.808 50.016 607.456 50.016C605.104 50.016 603.232 51.576 603.232 54.24ZM616.354 60V48.48H622.666C624.682 48.48 626.218 49.56 626.218 51.6C626.218 52.8 625.546 53.76 624.682 54.144C625.618 54.456 626.578 55.368 626.578 56.808C626.578 58.704 625.354 60 622.858 60H616.354ZM618.274 58.32H622.594C623.794 58.32 624.658 57.96 624.658 56.688C624.658 55.32 623.626 55.008 622.666 55.008H618.274V58.32ZM618.274 53.352H622.474C623.482 53.352 624.274 52.968 624.274 51.792C624.274 50.496 623.29 50.16 622.474 50.16H618.274V53.352ZM628.231 63.6L629.551 58.08H631.591L629.791 63.6H628.231ZM646.222 60.288C642.742 60.288 640.246 57.912 640.246 53.544C640.246 49.68 641.734 47.016 643.798 45.72C647.11 43.68 649.39 44.544 651.07 42.912V44.928C649.414 46.104 647.566 45.6 644.926 47.136C643.318 48.096 642.67 49.656 642.19 51.12C643.006 49.848 644.638 48.96 646.438 48.96C649.438 48.96 652.102 51.144 652.102 54.576C652.102 58.176 649.702 60.288 646.222 60.288ZM642.166 54.624C642.166 56.808 643.75 58.464 646.174 58.464C648.694 58.464 650.182 56.808 650.182 54.624C650.182 52.44 648.694 50.784 646.174 50.784C643.774 50.784 642.166 52.68 642.166 54.624ZM660.477 60.288C657.069 60.288 654.093 58.344 654.093 54.24C654.093 50.208 657.093 48.192 659.829 48.192C664.269 48.192 665.901 51.816 665.181 55.08H656.013C656.253 57.504 658.437 58.512 660.765 58.512C662.181 58.512 663.573 58.128 664.557 57.576V59.448C663.501 60 661.989 60.288 660.477 60.288ZM656.013 53.4H663.477C663.645 52.176 662.877 49.968 659.949 49.968C657.981 49.968 656.157 51.144 656.013 53.4ZM671.466 60.288C669.834 60.288 668.298 59.928 667.218 59.4V57.576C668.202 58.104 669.834 58.512 671.226 58.512C673.05 58.512 674.73 58.176 674.73 56.688C674.73 55.272 673.338 55.032 672.186 55.032H669.666V53.256H672.186C673.482 53.256 674.49 52.872 674.49 51.768C674.49 50.496 673.122 49.944 671.322 49.944C669.954 49.944 668.466 50.328 667.41 50.856V49.056C668.562 48.528 670.002 48.168 671.538 48.168C674.754 48.168 676.41 49.488 676.41 51.504C676.41 52.896 675.57 53.808 674.274 54.096C675.57 54.432 676.65 55.416 676.65 56.904C676.65 59.088 674.658 60.288 671.466 60.288ZM685.448 60V48.48H695.96V60H694.04V50.256H687.368V60H685.448ZM699.51 65.28V48.48H701.238V50.4C702.27 49.224 703.686 48.192 705.894 48.192C709.182 48.192 711.654 50.784 711.654 54.24C711.654 57.696 709.182 60.288 705.894 60.288C703.686 60.288 702.27 59.256 701.43 58.272V65.28H699.51ZM701.43 55.68C702.078 57.168 703.614 58.512 705.678 58.512C707.91 58.512 709.734 56.88 709.734 54.24C709.734 51.6 707.91 49.968 705.678 49.968C703.614 49.968 702.078 51.312 701.43 52.8V55.68ZM719.769 60.288C716.649 60.288 713.625 58.176 713.625 54.24C713.625 50.304 716.649 48.192 719.769 48.192C722.913 48.192 725.913 50.304 725.913 54.24C725.913 58.176 722.913 60.288 719.769 60.288ZM715.545 54.24C715.545 56.904 717.417 58.464 719.769 58.464C722.121 58.464 723.993 56.904 723.993 54.24C723.993 51.576 722.121 50.016 719.769 50.016C717.417 50.016 715.545 51.576 715.545 54.24ZM728.667 60V48.48H730.587V56.904L737.643 48.48H739.275V60H737.355V51.576L730.299 60H728.667ZM748.199 60.288C745.175 60.288 742.031 58.392 742.031 54.288C742.031 50.088 745.271 48.192 748.271 48.192C749.567 48.192 750.839 48.48 751.823 49.128V51C750.959 50.328 749.735 49.968 748.511 49.968C746.279 49.968 743.951 51.216 743.951 54.24C743.951 57.192 746.207 58.512 748.463 58.512C749.711 58.512 750.983 58.152 751.943 57.576V59.496C750.863 60.024 749.639 60.288 748.199 60.288ZM754.659 60V48.48H756.579V58.224H761.739V48.48H763.659V58.224H768.819V48.48H770.739V60H754.659ZM779.891 60.288C776.483 60.288 773.507 58.344 773.507 54.24C773.507 50.208 776.507 48.192 779.243 48.192C783.683 48.192 785.315 51.816 784.595 55.08H775.427C775.667 57.504 777.851 58.512 780.179 58.512C781.595 58.512 782.987 58.128 783.971 57.576V59.448C782.915 60 781.403 60.288 779.891 60.288ZM775.427 53.4H782.891C783.059 52.176 782.291 49.968 779.363 49.968C777.395 49.968 775.571 51.144 775.427 53.4ZM792.824 60.288C789.8 60.288 786.656 58.392 786.656 54.288C786.656 50.088 789.896 48.192 792.896 48.192C794.192 48.192 795.464 48.48 796.448 49.128V51C795.584 50.328 794.36 49.968 793.136 49.968C790.904 49.968 788.576 51.216 788.576 54.24C788.576 57.192 790.832 58.512 793.088 58.512C794.336 58.512 795.608 58.152 796.568 57.576V59.496C795.488 60.024 794.264 60.288 792.824 60.288ZM802.164 60V50.256H797.916V48.48H808.308V50.256H804.084V60H802.164ZM810.487 60V48.48H816.799C818.815 48.48 820.351 49.56 820.351 51.6C820.351 52.8 819.679 53.76 818.815 54.144C819.751 54.456 820.711 55.368 820.711 56.808C820.711 58.704 819.487 60 816.991 60H810.487ZM812.407 58.32H816.727C817.927 58.32 818.791 57.96 818.791 56.688C818.791 55.32 817.759 55.008 816.799 55.008H812.407V58.32ZM812.407 53.352H816.607C817.615 53.352 818.407 52.968 818.407 51.792C818.407 50.496 817.423 50.16 816.607 50.16H812.407V53.352ZM823.635 60V48.48H825.555V56.904L832.611 48.48H834.243V60H832.323V51.576L825.267 60H823.635ZM837.792 60V48.48H839.712V56.904L846.768 48.48H848.4V60H846.48V51.576L839.424 60H837.792ZM839.736 45.696V43.968C840.936 44.76 841.92 45.024 843.096 45.024C844.272 45.024 845.256 44.76 846.456 43.968V45.696C845.376 46.464 844.248 46.704 843.096 46.704C841.944 46.704 840.816 46.464 839.736 45.696Z" fill="black"/>
<rect y="98" width="420" height="228" fill="#393E84" fill-opacity="0.73"/>
<path d="M115.944 225V202.6H118.248L127.496 216.424L136.744 202.6H139.048V225H136.36V207.688L128.328 219.72H126.664L118.632 207.688V225H115.944ZM151.48 225.384C146.936 225.384 142.968 222.792 142.968 217.32C142.968 211.944 146.968 209.256 150.616 209.256C156.536 209.256 158.712 214.088 157.752 218.44H145.528C145.848 221.672 148.76 223.016 151.864 223.016C153.752 223.016 155.608 222.504 156.92 221.768V224.264C155.512 225 153.496 225.384 151.48 225.384ZM145.528 216.2H155.48C155.704 214.568 154.68 211.624 150.776 211.624C148.152 211.624 145.72 213.192 145.528 216.2ZM161.556 225V209.64H164.116V216.136H173.012V209.64H175.572V225H173.012V218.504H164.116V225H161.556ZM187.762 225.384C183.218 225.384 179.25 222.792 179.25 217.32C179.25 211.944 183.25 209.256 186.898 209.256C192.818 209.256 194.994 214.088 194.034 218.44H181.81C182.13 221.672 185.042 223.016 188.146 223.016C190.034 223.016 191.89 222.504 193.202 221.768V224.264C191.794 225 189.778 225.384 187.762 225.384ZM181.81 216.2H191.762C191.986 214.568 190.962 211.624 187.058 211.624C184.434 211.624 182.002 213.192 181.81 216.2ZM196.051 229.16V222.696H198.099C200.019 219.304 200.787 215.368 200.723 209.64H212.179V222.696H214.419V229.16H211.923V225H198.547V229.16H196.051ZM200.883 222.696H209.619V211.944H203.187C203.059 216.552 202.291 219.752 200.883 222.696ZM215.693 225L221.805 217.288L216.397 209.64H219.245L223.917 216.2H226.253V209.64H228.813V216.2H231.149L235.821 209.64H238.669L233.261 217.288L239.373 225H236.493L231.277 218.568H228.813V225H226.253V218.568H223.789L218.573 225H215.693ZM241.962 225V209.64H244.746L250.346 218.152L255.946 209.64H258.73V225H256.298V213.416L251.306 221H249.386L244.394 213.416V225H241.962ZM270.918 225.384C266.374 225.384 262.406 222.792 262.406 217.32C262.406 211.944 266.406 209.256 270.054 209.256C275.974 209.256 278.15 214.088 277.19 218.44H264.966C265.286 221.672 268.198 223.016 271.302 223.016C273.19 223.016 275.046 222.504 276.358 221.768V224.264C274.95 225 272.934 225.384 270.918 225.384ZM264.966 216.2H274.918C275.142 214.568 274.118 211.624 270.214 211.624C267.59 211.624 265.158 213.192 264.966 216.2ZM280.993 225V209.64H283.553V216.136H292.449V209.64H295.009V225H292.449V218.504H283.553V225H280.993ZM303.583 225V212.008H297.919V209.64H311.775V212.008H306.143V225H303.583Z" fill="white"/>
<rect x="420" y="98" width="651" height="238" fill="white"/>
<path d="M450.44 138.248V135.944H459.176V138.248H450.44ZM470.56 143.312C466.216 143.312 461.608 140.48 461.632 134.744C461.656 128.768 466.12 125.888 470.536 125.888C472.24 125.888 473.896 126.272 475.312 126.992V129.656C474.16 128.84 472.576 128.408 471.016 128.408C467.776 128.408 464.44 130.304 464.44 134.744C464.416 138.872 467.824 140.792 471.04 140.792C472.768 140.792 474.352 140.336 475.432 139.496V142.208C474.016 142.904 472.36 143.312 470.56 143.312ZM483.151 143.312C479.935 143.312 476.911 141.224 476.911 137.24C476.911 133.256 479.935 131.168 483.151 131.168C486.391 131.168 489.391 133.256 489.391 137.24C489.391 141.224 486.391 143.312 483.151 143.312ZM479.503 137.24C479.503 139.496 480.991 140.96 483.151 140.96C485.311 140.96 486.799 139.496 486.799 137.24C486.799 134.984 485.311 133.52 483.151 133.52C480.991 133.52 479.503 134.984 479.503 137.24ZM497.401 143.312C494.185 143.312 491.161 141.224 491.161 137.24C491.161 133.256 494.185 131.168 497.401 131.168C500.641 131.168 503.641 133.256 503.641 137.24C503.641 141.224 500.641 143.312 497.401 143.312ZM493.753 137.24C493.753 139.496 495.241 140.96 497.401 140.96C499.561 140.96 501.049 139.496 501.049 137.24C501.049 134.984 499.561 133.52 497.401 133.52C495.241 133.52 493.753 134.984 493.753 137.24ZM508.563 143V133.736H504.579V131.48H515.115V133.736H511.131V143H508.563ZM517.1 143V131.48H523.676C526.004 131.48 527.324 132.752 527.324 134.552C527.324 135.824 526.676 136.736 525.692 137.168C526.772 137.504 527.66 138.416 527.66 139.832C527.66 141.608 526.532 143 523.868 143H517.1ZM519.668 141.056H523.268C524.3 141.056 525.092 140.696 525.092 139.592C525.092 138.416 524.204 138.104 523.316 138.104H519.668V141.056ZM519.668 136.28H523.1C524.012 136.28 524.732 135.92 524.732 134.888C524.732 133.76 523.892 133.424 523.1 133.424H519.668V136.28ZM536.08 143.312C532.552 143.312 529.552 141.296 529.552 137.24C529.552 133.064 532.696 131.168 535.384 131.168C539.968 131.168 541.552 134.864 540.808 138.2H532.12C532.432 140.264 534.424 141.128 536.56 141.128C537.928 141.128 539.224 140.792 540.208 140.312V142.52C539.152 143.024 537.664 143.312 536.08 143.312ZM532.12 136.28H538.504C538.648 135.272 538.024 133.304 535.48 133.304C533.776 133.304 532.216 134.336 532.12 136.28ZM546.016 143V133.736H542.032V131.48H552.568V133.736H548.584V143H546.016ZM559.721 143.312C556.649 143.312 553.505 141.44 553.505 137.336C553.505 133.04 556.769 131.168 559.865 131.168C561.137 131.168 562.409 131.456 563.417 132.056V134.408C562.577 133.808 561.377 133.448 560.225 133.448C558.185 133.448 556.097 134.528 556.097 137.24C556.097 139.856 558.113 141.032 560.153 141.032C561.401 141.032 562.625 140.672 563.537 140.144V142.52C562.433 143.048 561.185 143.312 559.721 143.312ZM568.798 143V133.736H564.814V131.48H575.35V133.736H571.366V143H568.798ZM577.335 143V131.48H583.911C586.239 131.48 587.559 132.752 587.559 134.552C587.559 135.824 586.911 136.736 585.927 137.168C587.007 137.504 587.895 138.416 587.895 139.832C587.895 141.608 586.767 143 584.103 143H577.335ZM579.903 141.056H583.503C584.535 141.056 585.327 140.696 585.327 139.592C585.327 138.416 584.439 138.104 583.551 138.104H579.903V141.056ZM579.903 136.28H583.335C584.247 136.28 584.967 135.92 584.967 134.888C584.967 133.76 584.127 133.424 583.335 133.424H579.903V136.28ZM590.506 143V131.48H593.074V139.016L599.242 131.48H601.474V143H598.906V135.464L592.714 143H590.506ZM610.494 143.312C606.966 143.312 603.966 141.296 603.966 137.24C603.966 133.064 607.11 131.168 609.798 131.168C614.382 131.168 615.966 134.864 615.222 138.2H606.534C606.846 140.264 608.838 141.128 610.974 141.128C612.342 141.128 613.638 140.792 614.622 140.312V142.52C613.566 143.024 612.078 143.312 610.494 143.312ZM606.534 136.28H612.918C613.062 135.272 612.438 133.304 609.894 133.304C608.19 133.304 606.63 134.336 606.534 136.28ZM631.786 143.288C625.906 143.288 623.002 138.944 623.002 134.6C623.002 130.256 625.906 125.912 631.786 125.912C637.666 125.912 640.57 130.256 640.57 134.6C640.57 138.944 637.666 143.288 631.786 143.288ZM625.042 134.6C625.042 138.056 627.226 141.368 631.786 141.368C636.346 141.368 638.53 138.056 638.53 134.6C638.53 131.144 636.346 127.832 631.786 127.832C627.226 127.832 625.042 131.144 625.042 134.6ZM643.864 143V126.2H645.88V133.616H655.84V126.2H657.856V143H655.84V135.536H645.88V143H643.864ZM667.087 143.288C664.903 143.288 662.959 142.76 661.327 141.848V139.832C663.103 140.912 665.023 141.368 666.943 141.368C669.271 141.368 671.263 140.768 671.263 138.872C671.263 134.36 661.255 136.256 661.255 130.352C661.255 127.352 663.967 125.912 667.015 125.912C668.863 125.912 670.759 126.368 672.103 127.136V129.152C670.759 128.288 668.887 127.808 667.159 127.832C664.951 127.832 663.295 128.48 663.295 130.28C663.295 134.528 673.303 132.704 673.303 138.728C673.303 142.064 670.303 143.312 667.087 143.288ZM673.934 143L681.254 126.2H683.486L690.782 143H688.622L686.894 138.944H677.846L676.118 143H673.934ZM678.638 137.072H686.102L682.622 128.912L682.358 128.24C682.262 128.48 682.19 128.696 682.094 128.912L678.638 137.072ZM697.72 143.288C695.536 143.288 693.592 142.76 691.96 141.848V139.832C693.736 140.912 695.656 141.368 697.576 141.368C699.904 141.368 701.896 140.768 701.896 138.872C701.896 134.36 691.888 136.256 691.888 130.352C691.888 127.352 694.6 125.912 697.648 125.912C699.496 125.912 701.392 126.368 702.736 127.136V129.152C701.392 128.288 699.52 127.808 697.792 127.832C695.584 127.832 693.928 128.48 693.928 130.28C693.928 134.528 703.936 132.704 703.936 138.728C703.936 142.064 700.936 143.312 697.72 143.288ZM450.44 170.248V167.944H459.176V170.248H450.44ZM470.536 175.288C466.312 175.288 461.704 172.312 461.728 166.72C461.752 160.888 466.192 157.912 470.56 157.912C472.24 157.912 473.872 158.296 475.288 159.04V161.056C474.064 160.24 472.48 159.832 470.896 159.832C467.416 159.832 463.792 161.92 463.768 166.72C463.744 171.208 467.488 173.368 470.968 173.368C472.696 173.368 474.256 172.96 475.408 172.144V174.16C474.016 174.88 472.336 175.288 470.536 175.288ZM477.94 175V163.48H479.86V171.904L486.916 163.48H488.548V175H486.628V166.576L479.572 175H477.94ZM497.472 175.288C494.448 175.288 491.304 173.392 491.304 169.288C491.304 165.088 494.544 163.192 497.544 163.192C498.84 163.192 500.112 163.48 501.096 164.128V166C500.232 165.328 499.008 164.968 497.784 164.968C495.552 164.968 493.224 166.216 493.224 169.24C493.224 172.192 495.48 173.512 497.736 173.512C498.984 173.512 500.256 173.152 501.216 172.576V174.496C500.136 175.024 498.912 175.288 497.472 175.288ZM506.812 175V165.256H502.564V163.48H512.956V165.256H508.732V175H506.812ZM520.352 175.288C516.944 175.288 513.968 173.344 513.968 169.24C513.968 165.208 516.968 163.192 519.704 163.192C524.144 163.192 525.776 166.816 525.056 170.08H515.888C516.128 172.504 518.312 173.512 520.64 173.512C522.056 173.512 523.448 173.128 524.432 172.576V174.448C523.376 175 521.864 175.288 520.352 175.288ZM515.888 168.4H523.352C523.52 167.176 522.752 164.968 519.824 164.968C517.856 164.968 516.032 166.144 515.888 168.4ZM527.909 175V163.48H529.997L534.197 169.864L538.397 163.48H540.485V175H538.661V166.312L534.917 172H533.477L529.733 166.312V175H527.909ZM547.13 175.288C545.09 175.288 543.074 174.208 543.074 171.784C543.074 168.808 545.81 167.896 548.282 167.896C549.29 167.896 550.514 168.04 551.474 168.256V167.848C551.474 166.12 550.298 164.968 548.186 164.968C546.41 164.968 544.994 165.4 543.986 165.832V163.96C544.898 163.648 546.482 163.192 548.378 163.192C551.45 163.192 553.394 164.872 553.394 168.088V172.6C553.394 173.296 553.778 173.488 554.282 173.488C554.57 173.488 554.882 173.416 555.17 173.32V174.88C554.714 175.048 554.21 175.144 553.73 175.144C552.818 175.144 552.002 174.784 551.642 173.824L551.618 173.752C550.466 174.712 549.002 175.288 547.13 175.288ZM545.042 171.688C545.042 173.032 546.266 173.632 547.538 173.632C549.002 173.632 550.466 173.032 551.474 171.952V169.84C550.658 169.672 549.482 169.504 548.546 169.504C546.866 169.504 545.042 170.008 545.042 171.688ZM563.833 180.568C563.425 180.568 563.017 180.52 562.585 180.4V178.744C562.921 178.84 563.257 178.888 563.593 178.888C564.889 178.888 565.825 177.952 566.569 176.08L567.001 175.024L561.529 163.48H563.569L567.913 172.816L571.801 163.48H573.841L568.177 176.728C566.977 179.512 565.513 180.568 563.833 180.568ZM575.979 175V163.48H586.491V175H584.571V165.256H577.899V175H575.979ZM590.042 180.28V163.48H591.77V165.4C592.802 164.224 594.218 163.192 596.426 163.192C599.714 163.192 602.186 165.784 602.186 169.24C602.186 172.696 599.714 175.288 596.426 175.288C594.218 175.288 592.802 174.256 591.962 173.272V180.28H590.042ZM591.962 170.68C592.61 172.168 594.146 173.512 596.21 173.512C598.442 173.512 600.266 171.88 600.266 169.24C600.266 166.6 598.442 164.968 596.21 164.968C594.146 164.968 592.61 166.312 591.962 167.8V170.68ZM608.044 175.288C606.004 175.288 603.988 174.208 603.988 171.784C603.988 168.808 606.724 167.896 609.196 167.896C610.204 167.896 611.428 168.04 612.388 168.256V167.848C612.388 166.12 611.212 164.968 609.1 164.968C607.324 164.968 605.908 165.4 604.9 165.832V163.96C605.812 163.648 607.396 163.192 609.292 163.192C612.364 163.192 614.308 164.872 614.308 168.088V172.6C614.308 173.296 614.692 173.488 615.196 173.488C615.484 173.488 615.796 173.416 616.084 173.32V174.88C615.628 175.048 615.124 175.144 614.644 175.144C613.732 175.144 612.916 174.784 612.556 173.824L612.532 173.752C611.38 174.712 609.916 175.288 608.044 175.288ZM605.956 171.688C605.956 173.032 607.18 173.632 608.452 173.632C609.916 173.632 611.38 173.032 612.388 171.952V169.84C611.572 169.672 610.396 169.504 609.46 169.504C607.78 169.504 605.956 170.008 605.956 171.688ZM618.003 175V163.48H624.315C626.331 163.48 627.867 164.56 627.867 166.6C627.867 167.8 627.195 168.76 626.331 169.144C627.267 169.456 628.227 170.368 628.227 171.808C628.227 173.704 627.003 175 624.507 175H618.003ZM619.923 173.32H624.243C625.443 173.32 626.307 172.96 626.307 171.688C626.307 170.32 625.275 170.008 624.315 170.008H619.923V173.32ZM619.923 168.352H624.123C625.131 168.352 625.923 167.968 625.923 166.792C625.923 165.496 624.939 165.16 624.123 165.16H619.923V168.352ZM631.055 175.192C630.623 175.192 630.167 175.12 629.663 174.928V173.416C629.927 173.512 630.191 173.56 630.431 173.56C632.471 173.56 633.143 169.672 633.359 163.48H641.831V175H639.911V165.256H635.231C634.847 171.16 634.031 175.192 631.055 175.192ZM650.97 175.288C647.562 175.288 644.586 173.344 644.586 169.24C644.586 165.208 647.586 163.192 650.322 163.192C654.762 163.192 656.394 166.816 655.674 170.08H646.506C646.746 172.504 648.93 173.512 651.258 173.512C652.674 173.512 654.066 173.128 655.05 172.576V174.448C653.994 175 652.482 175.288 650.97 175.288ZM646.506 168.4H653.97C654.138 167.176 653.37 164.968 650.442 164.968C648.474 164.968 646.65 166.144 646.506 168.4ZM658.526 175V163.48H660.446V168.352H667.118V163.48H669.038V175H667.118V170.128H660.446V175H658.526ZM672.589 175V163.48H674.509V171.904L681.565 163.48H683.197V175H681.277V166.576L674.221 175H672.589ZM694.281 175V170.968H691.041L687.897 175H685.641L688.977 170.776C687.057 170.248 686.217 168.64 686.217 167.224C686.217 165.208 687.729 163.48 690.537 163.48H696.201V175H694.281ZM688.137 167.224C688.137 168.496 689.097 169.24 690.705 169.24H694.281V165.208H690.705C689.097 165.208 688.137 165.952 688.137 167.224ZM450.44 202.248V199.944H459.176V202.248H450.44ZM462.856 207V190.2H468.592C472.48 190.2 475.72 191.424 475.72 195.624C475.72 199.824 472.48 201.048 468.592 201.048H464.872V207H462.856ZM464.872 199.128H468.688C471.424 199.128 473.68 198.456 473.68 195.624C473.68 192.768 471.448 192.12 468.688 192.12H464.872V199.128ZM481.036 207.288C478.996 207.288 476.98 206.208 476.98 203.784C476.98 200.808 479.716 199.896 482.188 199.896C483.196 199.896 484.42 200.04 485.38 200.256V199.848C485.38 198.12 484.204 196.968 482.092 196.968C480.316 196.968 478.9 197.4 477.892 197.832V195.96C478.804 195.648 480.388 195.192 482.284 195.192C485.356 195.192 487.3 196.872 487.3 200.088V204.6C487.3 205.296 487.684 205.488 488.188 205.488C488.476 205.488 488.788 205.416 489.076 205.32V206.88C488.62 207.048 488.116 207.144 487.636 207.144C486.724 207.144 485.908 206.784 485.548 205.824L485.524 205.752C484.372 206.712 482.908 207.288 481.036 207.288ZM478.948 203.688C478.948 205.032 480.172 205.632 481.444 205.632C482.908 205.632 484.372 205.032 485.38 203.952V201.84C484.564 201.672 483.388 201.504 482.452 201.504C480.772 201.504 478.948 202.008 478.948 203.688ZM494.427 207.288C492.795 207.288 491.259 206.928 490.179 206.4V204.576C491.163 205.104 492.795 205.512 494.187 205.512C496.011 205.512 497.691 205.176 497.691 203.688C497.691 202.272 496.299 202.032 495.147 202.032H492.627V200.256H495.147C496.443 200.256 497.451 199.872 497.451 198.768C497.451 197.496 496.083 196.944 494.283 196.944C492.915 196.944 491.427 197.328 490.371 197.856V196.056C491.523 195.528 492.963 195.168 494.499 195.168C497.715 195.168 499.371 196.488 499.371 198.504C499.371 199.896 498.531 200.808 497.235 201.096C498.531 201.432 499.611 202.416 499.611 203.904C499.611 206.088 497.619 207.288 494.427 207.288ZM502.432 207V195.48H508.744C510.76 195.48 512.296 196.56 512.296 198.6C512.296 199.8 511.624 200.76 510.76 201.144C511.696 201.456 512.656 202.368 512.656 203.808C512.656 205.704 511.432 207 508.936 207H502.432ZM504.352 205.32H508.672C509.872 205.32 510.736 204.96 510.736 203.688C510.736 202.32 509.704 202.008 508.744 202.008H504.352V205.32ZM504.352 200.352H508.552C509.56 200.352 510.352 199.968 510.352 198.792C510.352 197.496 509.368 197.16 508.552 197.16H504.352V200.352ZM515.581 207V195.48H517.501V203.904L524.557 195.48H526.189V207H524.269V198.576L517.213 207H515.581ZM532.617 207V197.256H528.369V195.48H538.761V197.256H534.537V207H532.617ZM540.94 207V195.48H542.86V203.904L549.916 195.48H551.548V207H549.628V198.576L542.572 207H540.94ZM560.688 207.288C557.28 207.288 554.304 205.344 554.304 201.24C554.304 197.208 557.304 195.192 560.04 195.192C564.48 195.192 566.112 198.816 565.392 202.08H556.224C556.464 204.504 558.648 205.512 560.976 205.512C562.392 205.512 563.784 205.128 564.768 204.576V206.448C563.712 207 562.2 207.288 560.688 207.288ZM556.224 200.4H563.688C563.856 199.176 563.088 196.968 560.16 196.968C558.192 196.968 556.368 198.144 556.224 200.4ZM573.772 207V195.48H582.364V197.736H576.34V207H573.772ZM589.799 207.312C586.271 207.312 583.271 205.296 583.271 201.24C583.271 197.064 586.415 195.168 589.103 195.168C593.687 195.168 595.271 198.864 594.527 202.2H585.839C586.151 204.264 588.143 205.128 590.279 205.128C591.647 205.128 592.943 204.792 593.927 204.312V206.52C592.871 207.024 591.383 207.312 589.799 207.312ZM585.839 200.28H592.223C592.367 199.272 591.743 197.304 589.199 197.304C587.495 197.304 585.935 198.336 585.839 200.28ZM597.139 207V195.48H599.707V200.112H605.467V195.48H608.035V207H605.467V202.368H599.707V207H597.139ZM617.057 207.312C613.529 207.312 610.529 205.296 610.529 201.24C610.529 197.064 613.673 195.168 616.361 195.168C620.945 195.168 622.529 198.864 621.785 202.2H613.097C613.409 204.264 615.401 205.128 617.537 205.128C618.905 205.128 620.201 204.792 621.185 204.312V206.52C620.129 207.024 618.641 207.312 617.057 207.312ZM613.097 200.28H619.481C619.625 199.272 619.001 197.304 616.457 197.304C614.753 197.304 613.193 198.336 613.097 200.28ZM624.397 212.28V195.48H626.701V197.28C627.589 196.176 628.957 195.168 631.117 195.168C634.573 195.168 636.829 197.928 636.829 201.24C636.829 204.552 634.573 207.312 631.117 207.312C629.101 207.312 627.757 206.424 626.965 205.512V212.28H624.397ZM626.965 202.632C627.541 203.904 628.861 205.056 630.637 205.056C632.725 205.056 634.213 203.496 634.213 201.24C634.213 198.984 632.725 197.424 630.637 197.424C628.861 197.424 627.541 198.576 626.965 199.824V202.632ZM642.495 207.312C640.407 207.312 638.463 206.16 638.463 203.784C638.463 200.832 641.199 199.92 643.599 199.92C644.559 199.92 645.687 200.064 646.575 200.256V199.848C646.575 198.408 645.519 197.4 643.551 197.4C641.871 197.4 640.455 197.832 639.423 198.288V195.936C640.335 195.624 641.991 195.168 643.839 195.168C647.079 195.168 649.143 196.728 649.143 200.208V204.336C649.143 204.984 649.527 205.176 650.007 205.176C650.247 205.176 650.535 205.104 650.775 205.032V206.88C650.295 207.072 649.719 207.168 649.143 207.168C648.135 207.168 647.295 206.784 646.863 205.896L646.839 205.824C645.711 206.76 644.295 207.312 642.495 207.312ZM641.103 203.616C641.103 204.744 642.111 205.32 643.263 205.32C644.487 205.32 645.687 204.864 646.575 203.976V202.008C645.903 201.864 644.919 201.72 644.103 201.72C642.639 201.72 641.103 202.176 641.103 203.616ZM654.837 207V197.736H650.853V195.48H661.389V197.736H657.405V207H654.837ZM663.374 207V195.48H665.942V203.016L672.11 195.48H674.342V207H671.774V199.464L665.582 207H663.374ZM677.553 207V195.48H684.129C686.457 195.48 687.777 196.752 687.777 198.552C687.777 199.824 687.129 200.736 686.145 201.168C687.225 201.504 688.113 202.416 688.113 203.832C688.113 205.608 686.985 207 684.321 207H677.553ZM680.121 205.056H683.721C684.753 205.056 685.545 204.696 685.545 203.592C685.545 202.416 684.657 202.104 683.769 202.104H680.121V205.056ZM680.121 200.28H683.553C684.465 200.28 685.185 199.92 685.185 198.888C685.185 197.76 684.345 197.424 683.553 197.424H680.121V200.28ZM690.725 207V195.48H693.293V200.112H699.053V195.48H701.621V207H699.053V202.368H693.293V207H690.725ZM710.355 207.312C707.139 207.312 704.115 205.224 704.115 201.24C704.115 197.256 707.139 195.168 710.355 195.168C713.595 195.168 716.595 197.256 716.595 201.24C716.595 205.224 713.595 207.312 710.355 207.312ZM706.707 201.24C706.707 203.496 708.195 204.96 710.355 204.96C712.515 204.96 714.003 203.496 714.003 201.24C714.003 198.984 712.515 197.52 710.355 197.52C708.195 197.52 706.707 198.984 706.707 201.24ZM719.085 207V195.48H721.653V203.016L727.821 195.48H730.053V207H727.485V199.464L721.293 207H719.085ZM721.053 192.888V190.8C722.301 191.568 723.357 191.808 724.557 191.808C725.757 191.808 726.837 191.568 728.061 190.8V192.888C727.005 193.608 725.877 193.872 724.557 193.872C723.261 193.872 722.133 193.608 721.053 192.888ZM738.983 207V195.48H741.551V200.04H743.447L746.759 195.48H749.687L745.511 201.192L750.143 207H747.191L743.399 202.224H741.551V207H738.983ZM753.122 212.568C752.618 212.568 752.114 212.496 751.61 212.376V210.192C751.994 210.312 752.402 210.36 752.786 210.36C753.986 210.36 754.874 209.544 755.57 207.888L755.882 207.096L750.434 195.48H753.17L757.034 204.072L760.466 195.48H763.154L757.754 208.56C756.506 211.56 754.898 212.568 753.122 212.568ZM764.302 207.216C763.822 207.216 763.294 207.12 762.718 206.904V204.888C762.958 204.984 763.222 205.032 763.438 205.032C765.382 205.032 765.934 201.192 766.15 195.48H775.03V207H772.462V197.664H768.574C768.214 203.232 767.374 207.216 764.302 207.216ZM778.241 207V195.48H780.809V199.32H783.953C786.857 199.32 788.513 200.976 788.513 203.16C788.513 205.32 786.857 207 783.953 207H778.241ZM780.809 204.96H783.473C784.961 204.96 785.897 204.336 785.897 203.16C785.897 201.96 784.961 201.336 783.473 201.336H780.809V204.96ZM792.157 207V197.736H788.173V195.48H798.709V197.736H794.725V207H792.157ZM801.942 212.568C801.438 212.568 800.934 212.496 800.43 212.376V210.192C800.814 210.312 801.222 210.36 801.606 210.36C802.806 210.36 803.694 209.544 804.39 207.888L804.702 207.096L799.254 195.48H801.99L805.854 204.072L809.286 195.48H811.974L806.574 208.56C805.326 211.56 803.718 212.568 801.942 212.568ZM813.889 212.28V195.48H816.193V197.28C817.081 196.176 818.449 195.168 820.609 195.168C824.065 195.168 826.321 197.928 826.321 201.24C826.321 204.552 824.065 207.312 820.609 207.312C818.593 207.312 817.249 206.424 816.457 205.512V212.28H813.889ZM816.457 202.632C817.033 203.904 818.353 205.056 820.129 205.056C822.217 205.056 823.705 203.496 823.705 201.24C823.705 198.984 822.217 197.424 820.129 197.424C818.353 197.424 817.033 198.576 816.457 199.824V202.632ZM828.819 207V195.48H831.387V199.32H834.531C837.435 199.32 839.091 200.976 839.091 203.16C839.091 205.32 837.435 207 834.531 207H828.819ZM831.387 204.96H834.051C835.539 204.96 836.475 204.336 836.475 203.16C836.475 201.96 835.539 201.336 834.051 201.336H831.387V204.96ZM841.155 207V195.48H843.723V207H841.155ZM859.879 202.992C858.823 203.4 857.887 203.592 856.447 203.592C853.807 203.592 852.007 202.296 852.007 199.464V195.48H853.927V199.32C853.927 201.264 855.103 201.816 857.023 201.816C858.175 201.816 858.991 201.672 859.879 201.312V195.48H861.799V207H859.879V202.992ZM870.954 207.288C867.546 207.288 864.57 205.344 864.57 201.24C864.57 197.208 867.57 195.192 870.306 195.192C874.746 195.192 876.378 198.816 875.658 202.08H866.49C866.73 204.504 868.914 205.512 871.242 205.512C872.658 205.512 874.05 205.128 875.034 204.576V206.448C873.978 207 872.466 207.288 870.954 207.288ZM866.49 200.4H873.954C874.122 199.176 873.354 196.968 870.426 196.968C868.458 196.968 866.634 198.144 866.49 200.4ZM878.51 212.28V195.48H880.238V197.4C881.27 196.224 882.686 195.192 884.894 195.192C888.182 195.192 890.654 197.784 890.654 201.24C890.654 204.696 888.182 207.288 884.894 207.288C882.686 207.288 881.27 206.256 880.43 205.272V212.28H878.51ZM880.43 202.68C881.078 204.168 882.614 205.512 884.678 205.512C886.91 205.512 888.734 203.88 888.734 201.24C888.734 198.6 886.91 196.968 884.678 196.968C882.614 196.968 881.078 198.312 880.43 199.8V202.68ZM899.009 207.288C895.601 207.288 892.625 205.344 892.625 201.24C892.625 197.208 895.625 195.192 898.361 195.192C902.801 195.192 904.433 198.816 903.713 202.08H894.545C894.785 204.504 896.969 205.512 899.297 205.512C900.713 205.512 902.105 205.128 903.089 204.576V206.448C902.033 207 900.521 207.288 899.009 207.288ZM894.545 200.4H902.009C902.177 199.176 901.409 196.968 898.481 196.968C896.513 196.968 894.689 198.144 894.545 200.4ZM909.997 207.288C908.365 207.288 906.829 206.928 905.749 206.4V204.576C906.733 205.104 908.365 205.512 909.757 205.512C911.581 205.512 913.261 205.176 913.261 203.688C913.261 202.272 911.869 202.032 910.717 202.032H908.197V200.256H910.717C912.013 200.256 913.021 199.872 913.021 198.768C913.021 197.496 911.653 196.944 909.853 196.944C908.485 196.944 906.997 197.328 905.941 197.856V196.056C907.093 195.528 908.533 195.168 910.069 195.168C913.285 195.168 914.941 196.488 914.941 198.504C914.941 199.896 914.101 200.808 912.805 201.096C914.101 201.432 915.181 202.416 915.181 203.904C915.181 206.088 913.189 207.288 909.997 207.288ZM923.979 207V195.48H930.291C932.307 195.48 933.843 196.56 933.843 198.6C933.843 199.8 933.171 200.76 932.307 201.144C933.243 201.456 934.203 202.368 934.203 203.808C934.203 205.704 932.979 207 930.483 207H923.979ZM925.899 205.32H930.219C931.419 205.32 932.283 204.96 932.283 203.688C932.283 202.32 931.251 202.008 930.291 202.008H925.899V205.32ZM925.899 200.352H930.099C931.107 200.352 931.899 199.968 931.899 198.792C931.899 197.496 930.915 197.16 930.099 197.16H925.899V200.352ZM942.48 207.288C939.36 207.288 936.336 205.176 936.336 201.24C936.336 197.304 939.36 195.192 942.48 195.192C945.624 195.192 948.624 197.304 948.624 201.24C948.624 205.176 945.624 207.288 942.48 207.288ZM938.256 201.24C938.256 203.904 940.128 205.464 942.48 205.464C944.832 205.464 946.704 203.904 946.704 201.24C946.704 198.576 944.832 197.016 942.48 197.016C940.128 197.016 938.256 198.576 938.256 201.24ZM956.754 207.288C953.73 207.288 950.586 205.392 950.586 201.288C950.586 197.088 953.826 195.192 956.826 195.192C958.122 195.192 959.394 195.48 960.378 196.128V198C959.514 197.328 958.29 196.968 957.066 196.968C954.834 196.968 952.506 198.216 952.506 201.24C952.506 204.192 954.762 205.512 957.018 205.512C958.266 205.512 959.538 205.152 960.498 204.576V206.496C959.418 207.024 958.194 207.288 956.754 207.288ZM963.214 207V195.48H973.726V207H971.806V197.256H965.134V207H963.214ZM977.276 207V195.48H979.196V203.904L986.252 195.48H987.884V207H985.964V198.576L978.908 207H977.276ZM994.312 207V197.256H990.064V195.48H1000.46V197.256H996.232V207H994.312ZM1005.61 207.288C1003.57 207.288 1001.56 206.208 1001.56 203.784C1001.56 200.808 1004.29 199.896 1006.77 199.896C1007.77 199.896 1009 200.04 1009.96 200.256V199.848C1009.96 198.12 1008.78 196.968 1006.67 196.968C1004.89 196.968 1003.48 197.4 1002.47 197.832V195.96C1003.38 195.648 1004.97 195.192 1006.86 195.192C1009.93 195.192 1011.88 196.872 1011.88 200.088V204.6C1011.88 205.296 1012.26 205.488 1012.77 205.488C1013.05 205.488 1013.37 205.416 1013.65 205.32V206.88C1013.2 207.048 1012.69 207.144 1012.21 207.144C1011.3 207.144 1010.49 206.784 1010.13 205.824L1010.1 205.752C1008.95 206.712 1007.49 207.288 1005.61 207.288ZM1003.53 203.688C1003.53 205.032 1004.75 205.632 1006.02 205.632C1007.49 205.632 1008.95 205.032 1009.96 203.952V201.84C1009.14 201.672 1007.97 201.504 1007.03 201.504C1005.35 201.504 1003.53 202.008 1003.53 203.688ZM1015.57 207V195.48H1017.49V200.352H1024.16V195.48H1026.08V207H1024.16V202.128H1017.49V207H1015.57ZM1029.64 207V195.48H1031.56V203.904L1038.61 195.48H1040.24V207H1038.32V198.576L1031.27 207H1029.64ZM1049.38 207.288C1045.98 207.288 1043 205.344 1043 201.24C1043 197.208 1046 195.192 1048.74 195.192C1053.18 195.192 1054.81 198.816 1054.09 202.08H1044.92C1045.16 204.504 1047.34 205.512 1049.67 205.512C1051.09 205.512 1052.48 205.128 1053.46 204.576V206.448C1052.41 207 1050.9 207.288 1049.38 207.288ZM1044.92 200.4H1052.38C1052.55 199.176 1051.78 196.968 1048.86 196.968C1046.89 196.968 1045.06 198.144 1044.92 200.4ZM450.44 234.248V231.944H459.176V234.248H450.44ZM462.232 239.24C461.776 239.24 461.272 239.168 460.744 238.976V237.056C461.08 237.176 461.368 237.224 461.896 237.224C464.944 237.224 465.424 229.616 466 222.2H476.344V239H474.328V224.12H467.92C467.248 231.776 466.624 239.216 462.232 239.24ZM480.331 239V227.48H482.251V235.904L489.307 227.48H490.939V239H489.019V230.576L481.963 239H480.331ZM501.567 234.992C500.511 235.4 499.575 235.592 498.135 235.592C495.495 235.592 493.695 234.296 493.695 231.464V227.48H495.615V231.32C495.615 233.264 496.791 233.816 498.711 233.816C499.863 233.816 500.679 233.672 501.567 233.312V227.48H503.487V239H501.567V234.992ZM507.049 239V227.48H508.969V232.352H515.641V227.48H517.561V239H515.641V234.128H508.969V239H507.049ZM526.464 239.288C523.344 239.288 520.32 237.176 520.32 233.24C520.32 229.304 523.344 227.192 526.464 227.192C529.608 227.192 532.608 229.304 532.608 233.24C532.608 237.176 529.608 239.288 526.464 239.288ZM522.24 233.24C522.24 235.904 524.112 237.464 526.464 237.464C528.816 237.464 530.688 235.904 530.688 233.24C530.688 230.576 528.816 229.016 526.464 229.016C524.112 229.016 522.24 230.576 522.24 233.24ZM540.954 239.288C537.546 239.288 534.57 237.344 534.57 233.24C534.57 229.208 537.57 227.192 540.306 227.192C544.746 227.192 546.378 230.816 545.658 234.08H536.49C536.73 236.504 538.914 237.512 541.242 237.512C542.658 237.512 544.05 237.128 545.034 236.576V238.448C543.978 239 542.466 239.288 540.954 239.288ZM536.49 232.4H543.954C544.122 231.176 543.354 228.968 540.426 228.968C538.458 228.968 536.634 230.144 536.49 232.4ZM554.038 239V227.48H560.614C562.942 227.48 564.262 228.752 564.262 230.552C564.262 231.824 563.614 232.736 562.63 233.168C563.71 233.504 564.598 234.416 564.598 235.832C564.598 237.608 563.47 239 560.806 239H554.038ZM556.606 237.056H560.206C561.238 237.056 562.03 236.696 562.03 235.592C562.03 234.416 561.142 234.104 560.254 234.104H556.606V237.056ZM556.606 232.28H560.038C560.95 232.28 561.67 231.92 561.67 230.888C561.67 229.76 560.83 229.424 560.038 229.424H556.606V232.28ZM567.21 239V227.48H569.802L573.714 233.552L577.65 227.48H580.242V239H577.77V231.2L574.506 236.24H572.946L569.682 231.2V239H567.21ZM589.26 239.312C585.732 239.312 582.732 237.296 582.732 233.24C582.732 229.064 585.876 227.168 588.564 227.168C593.148 227.168 594.732 230.864 593.988 234.2H585.3C585.612 236.264 587.604 237.128 589.74 237.128C591.108 237.128 592.404 236.792 593.388 236.312V238.52C592.332 239.024 590.844 239.312 589.26 239.312ZM585.3 232.28H591.684C591.828 231.272 591.204 229.304 588.66 229.304C586.956 229.304 585.396 230.336 585.3 232.28ZM596.6 239V227.48H599.168V236.744H603.512V227.48H606.08V236.744H610.4V227.48H612.968V239H596.6ZM619.362 239.312C617.274 239.312 615.33 238.16 615.33 235.784C615.33 232.832 618.066 231.92 620.466 231.92C621.426 231.92 622.554 232.064 623.442 232.256V231.848C623.442 230.408 622.386 229.4 620.418 229.4C618.738 229.4 617.322 229.832 616.29 230.288V227.936C617.202 227.624 618.858 227.168 620.706 227.168C623.946 227.168 626.01 228.728 626.01 232.208V236.336C626.01 236.984 626.394 237.176 626.874 237.176C627.114 237.176 627.402 237.104 627.642 237.032V238.88C627.162 239.072 626.586 239.168 626.01 239.168C625.002 239.168 624.162 238.784 623.73 237.896L623.706 237.824C622.578 238.76 621.162 239.312 619.362 239.312ZM617.97 235.616C617.97 236.744 618.978 237.32 620.13 237.32C621.354 237.32 622.554 236.864 623.442 235.976V234.008C622.77 233.864 621.786 233.72 620.97 233.72C619.506 233.72 617.97 234.176 617.97 235.616ZM631.704 239V229.736H627.72V227.48H638.256V229.736H634.272V239H631.704ZM645.721 239.312C642.193 239.312 639.193 237.296 639.193 233.24C639.193 229.064 642.337 227.168 645.025 227.168C649.609 227.168 651.193 230.864 650.449 234.2H641.761C642.073 236.264 644.065 237.128 646.201 237.128C647.569 237.128 648.865 236.792 649.849 236.312V238.52C648.793 239.024 647.305 239.312 645.721 239.312ZM641.761 232.28H648.145C648.289 231.272 647.665 229.304 645.121 229.304C643.417 229.304 641.857 230.336 641.761 232.28ZM653.302 239.216C652.822 239.216 652.294 239.12 651.718 238.904V236.888C651.958 236.984 652.222 237.032 652.438 237.032C654.382 237.032 654.934 233.192 655.15 227.48H664.03V239H661.462V229.664H657.574C657.214 235.232 656.374 239.216 653.302 239.216ZM667.241 239V227.48H669.809V231.32H672.953C675.857 231.32 677.513 232.976 677.513 235.16C677.513 237.32 675.857 239 672.953 239H667.241ZM669.809 236.96H672.473C673.961 236.96 674.897 236.336 674.897 235.16C674.897 233.96 673.961 233.336 672.473 233.336H669.809V236.96ZM685.252 239.312C682.18 239.312 679.036 237.44 679.036 233.336C679.036 229.04 682.3 227.168 685.396 227.168C686.668 227.168 687.94 227.456 688.948 228.056V230.408C688.108 229.808 686.908 229.448 685.756 229.448C683.716 229.448 681.628 230.528 681.628 233.24C681.628 235.856 683.644 237.032 685.684 237.032C686.932 237.032 688.156 236.672 689.068 236.144V238.52C687.964 239.048 686.716 239.312 685.252 239.312ZM694.329 239V229.736H690.345V227.48H700.881V229.736H696.897V239H694.329ZM702.866 239V227.48H709.442C711.77 227.48 713.09 228.752 713.09 230.552C713.09 231.824 712.442 232.736 711.458 233.168C712.538 233.504 713.426 234.416 713.426 235.832C713.426 237.608 712.298 239 709.634 239H702.866ZM705.434 237.056H709.034C710.066 237.056 710.858 236.696 710.858 235.592C710.858 234.416 709.97 234.104 709.082 234.104H705.434V237.056ZM705.434 232.28H708.866C709.778 232.28 710.498 231.92 710.498 230.888C710.498 229.76 709.658 229.424 708.866 229.424H705.434V232.28ZM721.558 239.312C718.342 239.312 715.318 237.224 715.318 233.24C715.318 229.256 718.342 227.168 721.558 227.168C724.798 227.168 727.798 229.256 727.798 233.24C727.798 237.224 724.798 239.312 721.558 239.312ZM717.91 233.24C717.91 235.496 719.398 236.96 721.558 236.96C723.718 236.96 725.206 235.496 725.206 233.24C725.206 230.984 723.718 229.52 721.558 229.52C719.398 229.52 717.91 230.984 717.91 233.24ZM450.44 266.248V263.944H459.176V266.248H450.44ZM462.232 271.24C461.776 271.24 461.272 271.168 460.744 270.976V269.056C461.08 269.176 461.368 269.224 461.896 269.224C464.944 269.224 465.424 261.616 466 254.2H476.344V271H474.328V256.12H467.92C467.248 263.776 466.624 271.216 462.232 271.24ZM480.331 271V259.48H482.251V267.904L489.307 259.48H490.939V271H489.019V262.576L481.963 271H480.331ZM501.567 266.992C500.511 267.4 499.575 267.592 498.135 267.592C495.495 267.592 493.695 266.296 493.695 263.464V259.48H495.615V263.32C495.615 265.264 496.791 265.816 498.711 265.816C499.863 265.816 500.679 265.672 501.567 265.312V259.48H503.487V271H501.567V266.992ZM507.049 271V259.48H508.969V264.352H515.641V259.48H517.561V271H515.641V266.128H508.969V271H507.049ZM524.208 271.288C522.168 271.288 520.152 270.208 520.152 267.784C520.152 264.808 522.888 263.896 525.36 263.896C526.368 263.896 527.592 264.04 528.552 264.256V263.848C528.552 262.12 527.376 260.968 525.264 260.968C523.488 260.968 522.072 261.4 521.064 261.832V259.96C521.976 259.648 523.56 259.192 525.456 259.192C528.528 259.192 530.472 260.872 530.472 264.088V268.6C530.472 269.296 530.856 269.488 531.36 269.488C531.648 269.488 531.96 269.416 532.248 269.32V270.88C531.792 271.048 531.288 271.144 530.808 271.144C529.896 271.144 529.08 270.784 528.72 269.824L528.696 269.752C527.544 270.712 526.08 271.288 524.208 271.288ZM522.12 267.688C522.12 269.032 523.344 269.632 524.616 269.632C526.08 269.632 527.544 269.032 528.552 267.952V265.84C527.736 265.672 526.56 265.504 525.624 265.504C523.944 265.504 522.12 266.008 522.12 267.688ZM541.703 271V266.968H538.463L535.319 271H533.063L536.399 266.776C534.479 266.248 533.639 264.64 533.639 263.224C533.639 261.208 535.151 259.48 537.959 259.48H543.623V271H541.703ZM535.559 263.224C535.559 264.496 536.519 265.24 538.127 265.24H541.703V261.208H538.127C536.519 261.208 535.559 261.952 535.559 263.224ZM558.222 271.312C555.006 271.312 551.982 269.224 551.982 265.24C551.982 261.256 555.006 259.168 558.222 259.168C561.462 259.168 564.462 261.256 564.462 265.24C564.462 269.224 561.462 271.312 558.222 271.312ZM554.574 265.24C554.574 267.496 556.062 268.96 558.222 268.96C560.382 268.96 561.87 267.496 561.87 265.24C561.87 262.984 560.382 261.52 558.222 261.52C556.062 261.52 554.574 262.984 554.574 265.24ZM569.384 271V261.736H565.4V259.48H575.936V261.736H571.952V271H569.384ZM577.921 271V259.48H584.497C586.825 259.48 588.145 260.752 588.145 262.552C588.145 263.824 587.497 264.736 586.513 265.168C587.593 265.504 588.481 266.416 588.481 267.832C588.481 269.608 587.353 271 584.689 271H577.921ZM580.489 269.056H584.089C585.121 269.056 585.913 268.696 585.913 267.592C585.913 266.416 585.025 266.104 584.137 266.104H580.489V269.056ZM580.489 264.28H583.921C584.833 264.28 585.553 263.92 585.553 262.888C585.553 261.76 584.713 261.424 583.921 261.424H580.489V264.28ZM596.9 271.312C593.372 271.312 590.372 269.296 590.372 265.24C590.372 261.064 593.516 259.168 596.204 259.168C600.788 259.168 602.372 262.864 601.628 266.2H592.94C593.252 268.264 595.244 269.128 597.38 269.128C598.748 269.128 600.044 268.792 601.028 268.312V270.52C599.972 271.024 598.484 271.312 596.9 271.312ZM592.94 264.28H599.324C599.468 263.272 598.844 261.304 596.3 261.304C594.596 261.304 593.036 262.336 592.94 264.28ZM606.837 271V261.736H602.853V259.48H613.389V261.736H609.405V271H606.837ZM620.542 271.312C617.47 271.312 614.326 269.44 614.326 265.336C614.326 261.04 617.59 259.168 620.686 259.168C621.958 259.168 623.23 259.456 624.238 260.056V262.408C623.398 261.808 622.198 261.448 621.046 261.448C619.006 261.448 616.918 262.528 616.918 265.24C616.918 267.856 618.934 269.032 620.974 269.032C622.222 269.032 623.446 268.672 624.358 268.144V270.52C623.254 271.048 622.006 271.312 620.542 271.312ZM629.618 271V261.736H625.634V259.48H636.17V261.736H632.186V271H629.618ZM638.155 271V259.48H644.731C647.059 259.48 648.379 260.752 648.379 262.552C648.379 263.824 647.731 264.736 646.747 265.168C647.827 265.504 648.715 266.416 648.715 267.832C648.715 269.608 647.587 271 644.923 271H638.155ZM640.723 269.056H644.323C645.355 269.056 646.147 268.696 646.147 267.592C646.147 266.416 645.259 266.104 644.371 266.104H640.723V269.056ZM640.723 264.28H644.155C645.067 264.28 645.787 263.92 645.787 262.888C645.787 261.76 644.947 261.424 644.155 261.424H640.723V264.28ZM657.135 271.312C653.607 271.312 650.607 269.296 650.607 265.24C650.607 261.064 653.751 259.168 656.439 259.168C661.023 259.168 662.607 262.864 661.863 266.2H653.175C653.487 268.264 655.479 269.128 657.615 269.128C658.983 269.128 660.279 268.792 661.263 268.312V270.52C660.207 271.024 658.719 271.312 657.135 271.312ZM653.175 264.28H659.559C659.703 263.272 659.079 261.304 656.535 261.304C654.831 261.304 653.271 262.336 653.175 264.28ZM664.475 271V259.48H667.043V264.112H672.803V259.48H675.371V271H672.803V266.368H667.043V271H664.475ZM678.585 271V259.48H681.153V264.112H686.913V259.48H689.481V271H686.913V266.368H681.153V271H678.585ZM698.214 271.312C694.998 271.312 691.974 269.224 691.974 265.24C691.974 261.256 694.998 259.168 698.214 259.168C701.454 259.168 704.454 261.256 704.454 265.24C704.454 269.224 701.454 271.312 698.214 271.312ZM694.566 265.24C694.566 267.496 696.054 268.96 698.214 268.96C700.374 268.96 701.862 267.496 701.862 265.24C701.862 262.984 700.374 261.52 698.214 261.52C696.054 261.52 694.566 262.984 694.566 265.24ZM712.44 271.312C709.368 271.312 706.224 269.44 706.224 265.336C706.224 261.04 709.488 259.168 712.584 259.168C713.856 259.168 715.128 259.456 716.136 260.056V262.408C715.296 261.808 714.096 261.448 712.944 261.448C710.904 261.448 708.816 262.528 708.816 265.24C708.816 267.856 710.832 269.032 712.872 269.032C714.12 269.032 715.344 268.672 716.256 268.144V270.52C715.152 271.048 713.904 271.312 712.44 271.312ZM721.516 271V261.736H717.532V259.48H728.068V261.736H724.084V271H721.516ZM730.053 271V259.48H732.621V263.32H735.765C738.669 263.32 740.325 264.976 740.325 267.16C740.325 269.32 738.669 271 735.765 271H730.053ZM732.621 268.96H735.285C736.773 268.96 737.709 268.336 737.709 267.16C737.709 265.96 736.773 265.336 735.285 265.336H732.621V268.96ZM450.44 298.248V295.944H459.176V298.248H450.44ZM476.848 303H474.832V291V289.56L464.728 303H462.856V286.2H464.872V298.176V299.616L474.976 286.2H476.848V303ZM480.823 303V291.48H482.743V296.352H489.415V291.48H491.335V303H489.415V298.128H482.743V303H480.823ZM493.733 306.12V301.272H495.269C496.709 298.728 497.285 295.776 497.237 291.48H505.829V301.272H507.509V306.12H505.637V303H495.605V306.12H493.733ZM497.357 301.272H503.909V293.208H499.085C498.989 296.664 498.413 299.064 497.357 301.272ZM510.073 303V291.48H511.993V299.904L519.049 291.48H520.681V303H518.761V294.576L511.705 303H510.073ZM524.229 303V291.48H530.541C532.557 291.48 534.093 292.56 534.093 294.6C534.093 295.8 533.421 296.76 532.557 297.144C533.493 297.456 534.453 298.368 534.453 299.808C534.453 301.704 533.229 303 530.733 303H524.229ZM526.149 301.32H530.469C531.669 301.32 532.533 300.96 532.533 299.688C532.533 298.32 531.501 298.008 530.541 298.008H526.149V301.32ZM526.149 296.352H530.349C531.357 296.352 532.149 295.968 532.149 294.792C532.149 293.496 531.165 293.16 530.349 293.16H526.149V296.352ZM537.378 303V291.48H539.298V299.904L546.354 291.48H547.986V303H546.066V294.576L539.01 303H537.378ZM550.382 306.12V301.272H551.918C553.358 298.728 553.934 295.776 553.886 291.48H562.478V301.272H564.158V306.12H562.286V303H552.254V306.12H550.382ZM554.006 301.272H560.558V293.208H555.734C555.638 296.664 555.062 299.064 554.006 301.272ZM566.974 308.568C566.566 308.568 566.158 308.52 565.726 308.4V306.744C566.062 306.84 566.398 306.888 566.734 306.888C568.03 306.888 568.966 305.952 569.71 304.08L570.142 303.024L564.67 291.48H566.71L571.054 300.816L574.942 291.48H576.982L571.318 304.728C570.118 307.512 568.654 308.568 566.974 308.568ZM581.864 303.288C579.824 303.288 577.808 302.208 577.808 299.784C577.808 296.808 580.544 295.896 583.016 295.896C584.024 295.896 585.248 296.04 586.208 296.256V295.848C586.208 294.12 585.032 292.968 582.92 292.968C581.144 292.968 579.728 293.4 578.72 293.832V291.96C579.632 291.648 581.216 291.192 583.112 291.192C586.184 291.192 588.128 292.872 588.128 296.088V300.6C588.128 301.296 588.512 301.488 589.016 301.488C589.304 301.488 589.616 301.416 589.904 301.32V302.88C589.448 303.048 588.944 303.144 588.464 303.144C587.552 303.144 586.736 302.784 586.376 301.824L586.352 301.752C585.2 302.712 583.736 303.288 581.864 303.288ZM579.776 299.688C579.776 301.032 581 301.632 582.272 301.632C583.736 301.632 585.2 301.032 586.208 299.952V297.84C585.392 297.672 584.216 297.504 583.28 297.504C581.6 297.504 579.776 298.008 579.776 299.688ZM591.727 303.192C591.295 303.192 590.839 303.12 590.335 302.928V301.416C590.599 301.512 590.863 301.56 591.103 301.56C593.143 301.56 593.815 297.672 594.031 291.48H602.503V303H600.583V293.256H595.903C595.519 299.16 594.703 303.192 591.727 303.192ZM606.049 303V291.48H607.969V295.512H611.521C614.329 295.512 615.985 297.12 615.985 299.256C615.985 301.392 614.329 303 611.521 303H606.049ZM607.969 301.272H611.281C612.961 301.272 614.041 300.624 614.041 299.256C614.041 297.888 612.961 297.24 611.281 297.24H607.969V301.272ZM618.448 303V291.48H620.368V296.352H627.04V291.48H628.96V303H627.04V298.128H620.368V303H618.448ZM632.51 303V291.48H634.43V295.512H637.982C640.79 295.512 642.446 297.12 642.446 299.256C642.446 301.392 640.79 303 637.982 303H632.51ZM634.43 301.272H637.742C639.422 301.272 640.502 300.624 640.502 299.256C640.502 297.888 639.422 297.24 637.742 297.24H634.43V301.272ZM644.678 303V291.48H646.598V303H644.678ZM655.751 303.288C652.343 303.288 649.367 301.344 649.367 297.24C649.367 293.208 652.367 291.192 655.103 291.192C659.543 291.192 661.175 294.816 660.455 298.08H651.287C651.527 300.504 653.711 301.512 656.039 301.512C657.455 301.512 658.847 301.128 659.831 300.576V302.448C658.775 303 657.263 303.288 655.751 303.288ZM651.287 296.4H658.751C658.919 295.176 658.151 292.968 655.223 292.968C653.255 292.968 651.431 294.144 651.287 296.4ZM668.835 303V291.48H679.731V303H677.163V293.736H671.403V303H668.835ZM688.464 303.312C685.248 303.312 682.224 301.224 682.224 297.24C682.224 293.256 685.248 291.168 688.464 291.168C691.704 291.168 694.704 293.256 694.704 297.24C694.704 301.224 691.704 303.312 688.464 303.312ZM684.816 297.24C684.816 299.496 686.304 300.96 688.464 300.96C690.624 300.96 692.112 299.496 692.112 297.24C692.112 294.984 690.624 293.52 688.464 293.52C686.304 293.52 684.816 294.984 684.816 297.24ZM702.69 303.312C699.618 303.312 696.474 301.44 696.474 297.336C696.474 293.04 699.738 291.168 702.834 291.168C704.106 291.168 705.378 291.456 706.386 292.056V294.408C705.546 293.808 704.346 293.448 703.194 293.448C701.154 293.448 699.066 294.528 699.066 297.24C699.066 299.856 701.082 301.032 703.122 301.032C704.37 301.032 705.594 300.672 706.506 300.144V302.52C705.402 303.048 704.154 303.312 702.69 303.312ZM709.27 303.216C708.79 303.216 708.262 303.12 707.686 302.904V300.888C707.926 300.984 708.19 301.032 708.406 301.032C710.35 301.032 710.902 297.192 711.118 291.48H719.998V303H717.43V293.664H713.542C713.182 299.232 712.342 303.216 709.27 303.216ZM729.018 303.312C725.49 303.312 722.49 301.296 722.49 297.24C722.49 293.064 725.634 291.168 728.322 291.168C732.906 291.168 734.49 294.864 733.746 298.2H725.058C725.37 300.264 727.362 301.128 729.498 301.128C730.866 301.128 732.162 300.792 733.146 300.312V302.52C732.09 303.024 730.602 303.312 729.018 303.312ZM725.058 296.28H731.442C731.586 295.272 730.962 293.304 728.418 293.304C726.714 293.304 725.154 294.336 725.058 296.28ZM735.162 306.096V300.888H736.722C738.138 298.416 738.618 295.488 738.546 291.48H747.57V300.888H749.25V306.096H746.826V303H737.586V306.096H735.162ZM739.434 300.888H745.002V293.592H740.97C740.874 296.688 740.394 298.848 739.434 300.888ZM756.831 303.312C753.759 303.312 750.615 301.44 750.615 297.336C750.615 293.04 753.879 291.168 756.975 291.168C758.247 291.168 759.519 291.456 760.527 292.056V294.408C759.687 293.808 758.487 293.448 757.335 293.448C755.295 293.448 753.207 294.528 753.207 297.24C753.207 299.856 755.223 301.032 757.263 301.032C758.511 301.032 759.735 300.672 760.647 300.144V302.52C759.543 303.048 758.295 303.312 756.831 303.312ZM765.907 303V293.736H761.923V291.48H772.459V293.736H768.475V303H765.907ZM774.444 303V291.48H781.02C783.348 291.48 784.668 292.752 784.668 294.552C784.668 295.824 784.02 296.736 783.036 297.168C784.116 297.504 785.004 298.416 785.004 299.832C785.004 301.608 783.876 303 781.212 303H774.444ZM777.012 301.056H780.612C781.644 301.056 782.436 300.696 782.436 299.592C782.436 298.416 781.548 298.104 780.66 298.104H777.012V301.056ZM777.012 296.28H780.444C781.356 296.28 782.076 295.92 782.076 294.888C782.076 293.76 781.236 293.424 780.444 293.424H777.012V296.28ZM787.616 303V291.48H790.184V299.016L796.352 291.48H798.584V303H796.016V295.464L789.824 303H787.616ZM809.164 303V299.232H806.548L803.692 303H800.74L803.932 298.944C802.3 298.368 801.364 296.976 801.364 295.368C801.364 293.28 802.9 291.48 805.804 291.48H811.732V303H809.164ZM803.956 295.392C803.956 296.52 804.796 297.168 806.212 297.168H809.164V293.616H806.212C804.796 293.616 803.956 294.264 803.956 295.392Z" fill="black"/>
<rect y="326" width="420" height="234" fill="#5F639F" fill-opacity="0.73"/>
<path d="M147.184 462.384C141.552 462.384 135.408 458.416 135.44 450.96C135.472 443.184 141.392 439.216 147.216 439.216C149.456 439.216 151.632 439.728 153.52 440.72V443.408C151.888 442.32 149.776 441.776 147.664 441.776C143.024 441.776 138.192 444.56 138.16 450.96C138.128 456.944 143.12 459.824 147.76 459.824C150.064 459.824 152.144 459.28 153.68 458.192V460.88C151.824 461.84 149.584 462.384 147.184 462.384ZM159.771 462V449.008H154.107V446.64H167.963V449.008H162.331V462H159.771ZM170.868 469.04V446.64H173.172V449.2C174.548 447.632 176.436 446.256 179.38 446.256C183.764 446.256 187.06 449.712 187.06 454.32C187.06 458.928 183.764 462.384 179.38 462.384C176.436 462.384 174.548 461.008 173.428 459.696V469.04H170.868ZM173.428 456.24C174.292 458.224 176.34 460.016 179.092 460.016C182.068 460.016 184.5 457.84 184.5 454.32C184.5 450.8 182.068 448.624 179.092 448.624C176.34 448.624 174.292 450.416 173.428 452.4V456.24ZM194.871 462.384C192.151 462.384 189.463 460.944 189.463 457.712C189.463 453.744 193.111 452.528 196.407 452.528C197.751 452.528 199.383 452.72 200.663 453.008V452.464C200.663 450.16 199.095 448.624 196.279 448.624C193.911 448.624 192.023 449.2 190.679 449.776V447.28C191.895 446.864 194.007 446.256 196.535 446.256C200.631 446.256 203.223 448.496 203.223 452.784V458.8C203.223 459.728 203.735 459.984 204.407 459.984C204.791 459.984 205.207 459.888 205.591 459.76V461.84C204.983 462.064 204.311 462.192 203.671 462.192C202.455 462.192 201.367 461.712 200.887 460.432L200.855 460.336C199.319 461.616 197.367 462.384 194.871 462.384ZM192.087 457.584C192.087 459.376 193.719 460.176 195.415 460.176C197.367 460.176 199.319 459.376 200.663 457.936V455.12C199.575 454.896 198.007 454.672 196.759 454.672C194.519 454.672 192.087 455.344 192.087 457.584ZM211.271 462V449.008H205.607V446.64H219.463V449.008H213.831V462H211.271ZM229.324 462.384C224.78 462.384 220.812 459.792 220.812 454.32C220.812 448.944 224.812 446.256 228.46 446.256C234.38 446.256 236.556 451.088 235.596 455.44H223.372C223.692 458.672 226.604 460.016 229.708 460.016C231.596 460.016 233.452 459.504 234.764 458.768V461.264C233.356 462 231.34 462.384 229.324 462.384ZM223.372 453.2H233.324C233.548 451.568 232.524 448.624 228.62 448.624C225.996 448.624 223.564 450.192 223.372 453.2ZM239.399 462V446.64H250.631V449.008H241.959V462H239.399ZM253.556 462V446.64H256.116V457.872L265.524 446.64H267.7V462H265.14V450.768L255.732 462H253.556ZM282.479 462V456.624H278.159L273.967 462H270.959L275.407 456.368C272.847 455.664 271.727 453.52 271.727 451.632C271.727 448.944 273.743 446.64 277.487 446.64H285.039V462H282.479ZM274.286 451.632C274.286 453.328 275.567 454.32 277.711 454.32H282.479V448.944H277.711C275.567 448.944 274.286 449.936 274.286 451.632Z" fill="white"/>
<rect x="420" y="326" width="651" height="234" fill="white"/>
<path d="M445.44 392.248V389.944H454.176V392.248H445.44ZM467.864 390.424C466.16 391 464.504 391.264 462.944 391.264C459.104 391.216 456.752 389.344 456.752 385.552V380.2H458.768V385.648C458.768 388.336 460.616 389.32 463.424 389.344C464.864 389.344 466.376 389.08 467.864 388.504V380.2H469.88V397H467.864V390.424ZM479.188 397.288C475.78 397.288 472.804 395.344 472.804 391.24C472.804 387.208 475.804 385.192 478.54 385.192C482.98 385.192 484.612 388.816 483.892 392.08H474.724C474.964 394.504 477.148 395.512 479.476 395.512C480.892 395.512 482.284 395.128 483.268 394.576V396.448C482.212 397 480.7 397.288 479.188 397.288ZM474.724 390.4H482.188C482.356 389.176 481.588 386.968 478.66 386.968C476.692 386.968 474.868 388.144 474.724 390.4ZM489.39 397V387.256H485.142V385.48H495.534V387.256H491.31V397H489.39ZM497.714 397V385.48H499.634V390.28H501.962L505.61 385.48H507.842L503.474 391.216L508.37 397H506.114L501.89 392.056H499.634V397H497.714ZM510.346 397V385.48H512.266V393.904L519.322 385.48H520.954V397H519.034V388.576L511.978 397H510.346ZM530.095 397.288C526.687 397.288 523.711 395.344 523.711 391.24C523.711 387.208 526.711 385.192 529.447 385.192C533.887 385.192 535.519 388.816 534.799 392.08H525.631C525.871 394.504 528.055 395.512 530.383 395.512C531.799 395.512 533.191 395.128 534.175 394.576V396.448C533.119 397 531.607 397.288 530.095 397.288ZM525.631 390.4H533.095C533.263 389.176 532.495 386.968 529.567 386.968C527.599 386.968 525.775 388.144 525.631 390.4ZM543.178 397V385.48H554.074V397H551.506V387.736H545.746V397H543.178ZM557.288 402.28V385.48H559.592V387.28C560.48 386.176 561.848 385.168 564.008 385.168C567.464 385.168 569.72 387.928 569.72 391.24C569.72 394.552 567.464 397.312 564.008 397.312C561.992 397.312 560.648 396.424 559.856 395.512V402.28H557.288ZM559.856 392.632C560.432 393.904 561.752 395.056 563.528 395.056C565.616 395.056 567.104 393.496 567.104 391.24C567.104 388.984 565.616 387.424 563.528 387.424C561.752 387.424 560.432 388.576 559.856 389.824V392.632ZM577.737 397.312C574.521 397.312 571.497 395.224 571.497 391.24C571.497 387.256 574.521 385.168 577.737 385.168C580.977 385.168 583.977 387.256 583.977 391.24C583.977 395.224 580.977 397.312 577.737 397.312ZM574.089 391.24C574.089 393.496 575.577 394.96 577.737 394.96C579.897 394.96 581.385 393.496 581.385 391.24C581.385 388.984 579.897 387.52 577.737 387.52C575.577 387.52 574.089 388.984 574.089 391.24ZM596.403 400.096V397H586.467V385.48H589.035V394.744H594.531V385.48H597.099V394.792H598.827V400.096H596.403ZM606.736 397.312C603.208 397.312 600.208 395.296 600.208 391.24C600.208 387.064 603.352 385.168 606.04 385.168C610.624 385.168 612.208 388.864 611.464 392.2H602.776C603.088 394.264 605.08 395.128 607.216 395.128C608.584 395.128 609.88 394.792 610.864 394.312V396.52C609.808 397.024 608.32 397.312 606.736 397.312ZM602.776 390.28H609.16C609.304 389.272 608.68 387.304 606.136 387.304C604.432 387.304 602.872 388.336 602.776 390.28ZM612.881 400.096V394.888H614.441C615.857 392.416 616.337 389.488 616.265 385.48H625.289V394.888H626.969V400.096H624.545V397H615.305V400.096H612.881ZM617.153 394.888H622.721V387.592H618.689C618.593 390.688 618.113 392.848 617.153 394.888ZM629.926 402.568C629.422 402.568 628.918 402.496 628.414 402.376V400.192C628.798 400.312 629.206 400.36 629.59 400.36C630.79 400.36 631.678 399.544 632.374 397.888L632.686 397.096L627.238 385.48H629.974L633.838 394.072L637.27 385.48H639.958L634.558 398.56C633.31 401.56 631.702 402.568 629.926 402.568ZM641.874 402.28V385.48H644.178V387.28C645.066 386.176 646.434 385.168 648.594 385.168C652.05 385.168 654.306 387.928 654.306 391.24C654.306 394.552 652.05 397.312 648.594 397.312C646.578 397.312 645.234 396.424 644.442 395.512V402.28H641.874ZM644.442 392.632C645.018 393.904 646.338 395.056 648.114 395.056C650.202 395.056 651.69 393.496 651.69 391.24C651.69 388.984 650.202 387.424 648.114 387.424C646.338 387.424 645.018 388.576 644.442 389.824V392.632ZM656.803 397V385.48H659.371V389.32H662.515C665.419 389.32 667.075 390.976 667.075 393.16C667.075 395.32 665.419 397 662.515 397H656.803ZM659.371 394.96H662.035C663.523 394.96 664.459 394.336 664.459 393.16C664.459 391.96 663.523 391.336 662.035 391.336H659.371V394.96ZM669.139 397V385.48H671.707V397H669.139ZM680.616 397V385.48H683.184V393.016L689.352 385.48H691.584V397H689.016V389.464L682.824 397H680.616ZM705.987 397.312C702.915 397.312 699.771 395.44 699.771 391.336C699.771 387.04 703.035 385.168 706.131 385.168C707.403 385.168 708.675 385.456 709.683 386.056V388.408C708.843 387.808 707.643 387.448 706.491 387.448C704.451 387.448 702.363 388.528 702.363 391.24C702.363 393.856 704.379 395.032 706.419 395.032C707.667 395.032 708.891 394.672 709.803 394.144V396.52C708.699 397.048 707.451 397.312 705.987 397.312ZM715.063 397V387.736H711.079V385.48H721.615V387.736H717.631V397H715.063ZM726.628 397.312C724.54 397.312 722.596 396.16 722.596 393.784C722.596 390.832 725.332 389.92 727.732 389.92C728.692 389.92 729.82 390.064 730.708 390.256V389.848C730.708 388.408 729.652 387.4 727.684 387.4C726.004 387.4 724.588 387.832 723.556 388.288V385.936C724.468 385.624 726.124 385.168 727.972 385.168C731.212 385.168 733.276 386.728 733.276 390.208V394.336C733.276 394.984 733.66 395.176 734.14 395.176C734.38 395.176 734.668 395.104 734.908 395.032V396.88C734.428 397.072 733.852 397.168 733.276 397.168C732.268 397.168 731.428 396.784 730.996 395.896L730.972 395.824C729.844 396.76 728.428 397.312 726.628 397.312ZM725.236 393.616C725.236 394.744 726.244 395.32 727.396 395.32C728.62 395.32 729.82 394.864 730.708 393.976V392.008C730.036 391.864 729.052 391.72 728.236 391.72C726.772 391.72 725.236 392.176 725.236 393.616ZM736.678 397V385.48H739.246V390.112H745.006V385.48H747.574V397H745.006V392.368H739.246V397H736.678ZM749.756 400.096V394.888H751.316C752.732 392.416 753.212 389.488 753.14 385.48H762.164V394.888H763.844V400.096H761.42V397H752.18V400.096H749.756ZM754.028 394.888H759.596V387.592H755.564C755.468 390.688 754.988 392.848 754.028 394.888ZM769.331 397.312C767.243 397.312 765.299 396.16 765.299 393.784C765.299 390.832 768.035 389.92 770.435 389.92C771.395 389.92 772.523 390.064 773.411 390.256V389.848C773.411 388.408 772.355 387.4 770.387 387.4C768.707 387.4 767.291 387.832 766.259 388.288V385.936C767.171 385.624 768.827 385.168 770.675 385.168C773.915 385.168 775.979 386.728 775.979 390.208V394.336C775.979 394.984 776.363 395.176 776.843 395.176C777.083 395.176 777.371 395.104 777.611 395.032V396.88C777.131 397.072 776.555 397.168 775.979 397.168C774.971 397.168 774.131 396.784 773.699 395.896L773.675 395.824C772.547 396.76 771.131 397.312 769.331 397.312ZM767.939 393.616C767.939 394.744 768.947 395.32 770.099 395.32C771.323 395.32 772.523 394.864 773.411 393.976V392.008C772.739 391.864 771.755 391.72 770.939 391.72C769.475 391.72 767.939 392.176 767.939 393.616ZM779.381 402.28V385.48H781.685V387.28C782.573 386.176 783.941 385.168 786.101 385.168C789.557 385.168 791.813 387.928 791.813 391.24C791.813 394.552 789.557 397.312 786.101 397.312C784.085 397.312 782.741 396.424 781.949 395.512V402.28H779.381ZM781.949 392.632C782.525 393.904 783.845 395.056 785.621 395.056C787.709 395.056 789.197 393.496 789.197 391.24C789.197 388.984 787.709 387.424 785.621 387.424C783.845 387.424 782.525 388.576 781.949 389.824V392.632ZM796.79 397V387.736H792.806V385.48H803.342V387.736H799.358V397H796.79ZM805.327 397V385.48H807.895V389.32H811.039C813.943 389.32 815.599 390.976 815.599 393.16C815.599 395.32 813.943 397 811.039 397H805.327ZM807.895 394.96H810.559C812.047 394.96 812.983 394.336 812.983 393.16C812.983 391.96 812.047 391.336 810.559 391.336H807.895V394.96ZM817.663 397V385.48H820.231V397H817.663ZM837.371 397.312C831.443 397.312 828.515 393.04 828.515 388.6C828.515 384.16 831.443 379.888 837.371 379.888C843.275 379.888 846.203 384.16 846.203 388.6C846.203 393.04 843.275 397.312 837.371 397.312ZM831.299 388.6C831.299 391.816 833.291 394.744 837.371 394.744C841.427 394.744 843.419 391.816 843.419 388.6C843.419 385.384 841.427 382.456 837.371 382.456C833.291 382.456 831.299 385.384 831.299 388.6ZM851.563 397V387.736H847.579V385.48H858.115V387.736H854.131V397H851.563ZM865.796 397V385.48H868.364V393.016L874.532 385.48H876.764V397H874.196V389.464L868.004 397H865.796ZM889.943 397V382.72H884.399V380.2H898.247V382.72H892.703V397H889.943ZM900.61 397V380.2H912.586V382.72H903.37V386.728H907.474C910.666 386.728 913.93 387.736 913.93 391.888C913.93 396.016 910.666 397 907.474 397H900.61ZM903.37 394.504H907.522C909.346 394.504 911.122 394.192 911.122 391.888C911.122 389.56 909.322 389.224 907.522 389.224H903.37V394.504ZM445.44 424.248V421.944H454.176V424.248H445.44ZM465.536 429.288C461.312 429.288 456.704 426.312 456.728 420.72C456.752 414.888 461.192 411.912 465.56 411.912C467.24 411.912 468.872 412.296 470.288 413.04V415.056C469.064 414.24 467.48 413.832 465.896 413.832C462.416 413.832 458.792 415.92 458.768 420.72C458.744 425.208 462.488 427.368 465.968 427.368C467.696 427.368 469.256 426.96 470.408 426.144V428.16C469.016 428.88 467.336 429.288 465.536 429.288ZM477.987 429.288C474.867 429.288 471.843 427.176 471.843 423.24C471.843 419.304 474.867 417.192 477.987 417.192C481.131 417.192 484.131 419.304 484.131 423.24C484.131 427.176 481.131 429.288 477.987 429.288ZM473.763 423.24C473.763 425.904 475.635 427.464 477.987 427.464C480.339 427.464 482.211 425.904 482.211 423.24C482.211 420.576 480.339 419.016 477.987 419.016C475.635 419.016 473.763 420.576 473.763 423.24ZM492.261 429.288C488.781 429.288 486.285 426.912 486.285 422.544C486.285 418.68 487.773 416.016 489.837 414.72C493.149 412.68 495.429 413.544 497.109 411.912V413.928C495.453 415.104 493.605 414.6 490.965 416.136C489.357 417.096 488.709 418.656 488.229 420.12C489.045 418.848 490.677 417.96 492.477 417.96C495.477 417.96 498.141 420.144 498.141 423.576C498.141 427.176 495.741 429.288 492.261 429.288ZM488.205 423.624C488.205 425.808 489.789 427.464 492.213 427.464C494.733 427.464 496.221 425.808 496.221 423.624C496.221 421.44 494.733 419.784 492.213 419.784C489.813 419.784 488.205 421.68 488.205 423.624ZM500.618 429.192C500.186 429.192 499.729 429.12 499.226 428.928V427.416C499.49 427.512 499.754 427.56 499.994 427.56C502.034 427.56 502.706 423.672 502.922 417.48H511.394V429H509.474V419.256H504.794C504.41 425.16 503.594 429.192 500.618 429.192ZM525.788 429.288C522.908 429.288 520.1 427.464 519.692 424.128H516.86V429H514.94V417.48H516.86V422.352H519.692C520.1 419.016 522.908 417.192 525.788 417.192C528.932 417.192 531.932 419.304 531.932 423.24C531.932 427.176 528.932 429.288 525.788 429.288ZM521.564 423.24C521.564 425.904 523.436 427.464 525.788 427.464C528.14 427.464 530.012 425.904 530.012 423.24C530.012 420.576 528.14 419.016 525.788 419.016C523.436 419.016 521.564 420.576 521.564 423.24ZM533.241 432.12V427.272H534.777C536.217 424.728 536.793 421.776 536.745 417.48H545.337V427.272H547.017V432.12H545.145V429H535.113V432.12H533.241ZM536.865 427.272H543.417V419.208H538.593C538.497 422.664 537.921 425.064 536.865 427.272ZM554.938 429.288C551.53 429.288 548.554 427.344 548.554 423.24C548.554 419.208 551.554 417.192 554.29 417.192C558.73 417.192 560.362 420.816 559.642 424.08H550.474C550.714 426.504 552.898 427.512 555.226 427.512C556.642 427.512 558.034 427.128 559.018 426.576V428.448C557.962 429 556.45 429.288 554.938 429.288ZM550.474 422.4H557.938C558.106 421.176 557.338 418.968 554.41 418.968C552.442 418.968 550.618 420.144 550.474 422.4ZM562.495 429V417.48H564.415V422.352H571.087V417.48H573.007V429H571.087V424.128H564.415V429H562.495ZM576.557 429V417.48H578.477V425.904L585.533 417.48H587.165V429H585.245V420.576L578.189 429H576.557ZM596.306 429.288C592.898 429.288 589.922 427.344 589.922 423.24C589.922 419.208 592.922 417.192 595.658 417.192C600.098 417.192 601.73 420.816 601.01 424.08H591.842C592.082 426.504 594.266 427.512 596.594 427.512C598.01 427.512 599.402 427.128 600.386 426.576V428.448C599.33 429 597.818 429.288 596.306 429.288ZM591.842 422.4H599.306C599.474 421.176 598.706 418.968 595.778 418.968C593.81 418.968 591.986 420.144 591.842 422.4ZM609.389 429V417.48H615.965C618.293 417.48 619.613 418.752 619.613 420.552C619.613 421.824 618.965 422.736 617.981 423.168C619.061 423.504 619.949 424.416 619.949 425.832C619.949 427.608 618.821 429 616.157 429H609.389ZM611.957 427.056H615.557C616.589 427.056 617.381 426.696 617.381 425.592C617.381 424.416 616.493 424.104 615.605 424.104H611.957V427.056ZM611.957 422.28H615.389C616.301 422.28 617.021 421.92 617.021 420.888C617.021 419.76 616.181 419.424 615.389 419.424H611.957V422.28ZM625.729 429.312C623.641 429.312 621.697 428.16 621.697 425.784C621.697 422.832 624.433 421.92 626.833 421.92C627.793 421.92 628.921 422.064 629.809 422.256V421.848C629.809 420.408 628.753 419.4 626.785 419.4C625.105 419.4 623.689 419.832 622.657 420.288V417.936C623.569 417.624 625.225 417.168 627.073 417.168C630.313 417.168 632.377 418.728 632.377 422.208V426.336C632.377 426.984 632.761 427.176 633.241 427.176C633.481 427.176 633.769 427.104 634.009 427.032V428.88C633.529 429.072 632.953 429.168 632.377 429.168C631.369 429.168 630.529 428.784 630.097 427.896L630.073 427.824C628.945 428.76 627.529 429.312 625.729 429.312ZM624.337 425.616C624.337 426.744 625.345 427.32 626.497 427.32C627.721 427.32 628.921 426.864 629.809 425.976V424.008C629.137 423.864 628.153 423.72 627.337 423.72C625.873 423.72 624.337 424.176 624.337 425.616ZM634.292 429L638.588 423.216L634.724 417.48H637.532L640.676 422.232H642.116V417.48H644.684V422.232H646.148L649.292 417.48H652.076L648.212 423.216L652.532 429H649.724L646.292 424.416H644.684V429H642.116V424.416H640.532L637.1 429H634.292ZM654.249 429V417.48H656.817V422.112H662.577V417.48H665.145V429H662.577V424.368H656.817V429H654.249ZM668.358 429V417.48H670.926V421.32H674.07C676.974 421.32 678.63 422.976 678.63 425.16C678.63 427.32 676.974 429 674.07 429H668.358ZM670.926 426.96H673.59C675.078 426.96 676.014 426.336 676.014 425.16C676.014 423.96 675.078 423.336 673.59 423.336H670.926V426.96ZM680.694 429V417.48H683.262V429H680.694ZM685.035 429L689.475 423.12L685.275 417.48H688.203L690.963 421.368L693.723 417.48H696.651L692.451 423.12L696.891 429H693.963L690.963 424.92L687.963 429H685.035ZM704.358 429V417.48H715.254V429H712.686V419.736H706.926V429H704.358ZM718.467 434.28V417.48H720.771V419.28C721.659 418.176 723.027 417.168 725.187 417.168C728.643 417.168 730.899 419.928 730.899 423.24C730.899 426.552 728.643 429.312 725.187 429.312C723.171 429.312 721.827 428.424 721.035 427.512V434.28H718.467ZM721.035 424.632C721.611 425.904 722.931 427.056 724.707 427.056C726.795 427.056 728.283 425.496 728.283 423.24C728.283 420.984 726.795 419.424 724.707 419.424C722.931 419.424 721.611 420.576 721.035 421.824V424.632ZM736.565 429.312C734.477 429.312 732.533 428.16 732.533 425.784C732.533 422.832 735.269 421.92 737.669 421.92C738.629 421.92 739.757 422.064 740.645 422.256V421.848C740.645 420.408 739.589 419.4 737.621 419.4C735.941 419.4 734.525 419.832 733.493 420.288V417.936C734.405 417.624 736.061 417.168 737.909 417.168C741.149 417.168 743.213 418.728 743.213 422.208V426.336C743.213 426.984 743.597 427.176 744.077 427.176C744.317 427.176 744.605 427.104 744.845 427.032V428.88C744.365 429.072 743.789 429.168 743.213 429.168C742.205 429.168 741.365 428.784 740.933 427.896L740.909 427.824C739.781 428.76 738.365 429.312 736.565 429.312ZM735.173 425.616C735.173 426.744 736.181 427.32 737.333 427.32C738.557 427.32 739.757 426.864 740.645 425.976V424.008C739.973 423.864 738.989 423.72 738.173 423.72C736.709 423.72 735.173 424.176 735.173 425.616ZM746.616 429V417.48H753.192C755.52 417.48 756.84 418.752 756.84 420.552C756.84 421.824 756.192 422.736 755.208 423.168C756.288 423.504 757.176 424.416 757.176 425.832C757.176 427.608 756.048 429 753.384 429H746.616ZM749.184 427.056H752.784C753.816 427.056 754.608 426.696 754.608 425.592C754.608 424.416 753.72 424.104 752.832 424.104H749.184V427.056ZM749.184 422.28H752.616C753.528 422.28 754.248 421.92 754.248 420.888C754.248 419.76 753.408 419.424 752.616 419.424H749.184V422.28ZM759.788 429V417.48H762.356V425.016L768.524 417.48H770.756V429H768.188V421.464L761.996 429H759.788ZM774.231 429.216C773.751 429.216 773.223 429.12 772.647 428.904V426.888C772.887 426.984 773.151 427.032 773.367 427.032C775.311 427.032 775.863 423.192 776.079 417.48H784.959V429H782.391V419.664H778.503C778.143 425.232 777.303 429.216 774.231 429.216ZM799.386 429.312C795.954 429.312 793.338 427.104 793.338 422.472C793.338 418.488 794.802 415.944 796.866 414.648C800.178 412.608 802.698 413.496 804.354 411.888V414.384C802.746 415.608 800.85 415.056 798.402 416.424C796.914 417.264 796.29 418.752 795.954 420.072C796.722 418.92 798.186 418.056 799.962 418.056C802.89 418.056 805.362 420.168 805.362 423.648C805.362 427.296 802.866 429.312 799.386 429.312ZM795.93 423.696C795.93 425.472 797.106 427.104 799.338 427.104C801.642 427.104 802.77 425.472 802.77 423.696C802.77 421.92 801.642 420.288 799.338 420.288C797.13 420.288 795.93 422.088 795.93 423.696ZM813.689 429.312C810.161 429.312 807.161 427.296 807.161 423.24C807.161 419.064 810.305 417.168 812.993 417.168C817.577 417.168 819.161 420.864 818.417 424.2H809.729C810.041 426.264 812.033 427.128 814.169 427.128C815.537 427.128 816.833 426.792 817.817 426.312V428.52C816.761 429.024 815.273 429.312 813.689 429.312ZM809.729 422.28H816.113C816.257 421.272 815.633 419.304 813.089 419.304C811.385 419.304 809.825 420.336 809.729 422.28ZM824.63 429.312C822.926 429.312 821.39 428.928 820.31 428.376V426.168C821.246 426.696 822.902 427.128 824.294 427.128C825.998 427.128 827.438 426.816 827.438 425.544C827.438 424.32 826.19 424.152 825.038 424.152H822.71V422.16H825.038C826.262 422.16 827.198 421.824 827.198 420.864C827.198 419.832 826.094 419.328 824.438 419.328C823.094 419.328 821.51 419.736 820.526 420.264V418.056C821.63 417.528 823.19 417.144 824.75 417.144C828.326 417.144 829.79 418.68 829.79 420.528C829.79 421.896 828.95 422.784 827.75 423.096C829.07 423.456 830.03 424.416 830.03 425.856C830.03 427.872 828.182 429.312 824.63 429.312ZM838.128 429.312C834.912 429.312 831.888 427.224 831.888 423.24C831.888 419.256 834.912 417.168 838.128 417.168C841.368 417.168 844.368 419.256 844.368 423.24C844.368 427.224 841.368 429.312 838.128 429.312ZM834.48 423.24C834.48 425.496 835.968 426.96 838.128 426.96C840.288 426.96 841.776 425.496 841.776 423.24C841.776 420.984 840.288 419.52 838.128 419.52C835.968 419.52 834.48 420.984 834.48 423.24ZM846.858 429V417.48H857.754V429H855.186V419.736H849.426V429H846.858ZM864.135 429.312C862.047 429.312 860.103 428.16 860.103 425.784C860.103 422.832 862.839 421.92 865.239 421.92C866.199 421.92 867.327 422.064 868.215 422.256V421.848C868.215 420.408 867.159 419.4 865.191 419.4C863.511 419.4 862.095 419.832 861.063 420.288V417.936C861.975 417.624 863.631 417.168 865.479 417.168C868.719 417.168 870.783 418.728 870.783 422.208V426.336C870.783 426.984 871.167 427.176 871.647 427.176C871.887 427.176 872.175 427.104 872.415 427.032V428.88C871.935 429.072 871.359 429.168 870.783 429.168C869.775 429.168 868.935 428.784 868.503 427.896L868.479 427.824C867.351 428.76 865.935 429.312 864.135 429.312ZM862.743 425.616C862.743 426.744 863.751 427.32 864.903 427.32C866.127 427.32 867.327 426.864 868.215 425.976V424.008C867.543 423.864 866.559 423.72 865.743 423.72C864.279 423.72 862.743 424.176 862.743 425.616ZM879.682 429.312C876.61 429.312 873.466 427.44 873.466 423.336C873.466 419.04 876.73 417.168 879.826 417.168C881.098 417.168 882.37 417.456 883.378 418.056V420.408C882.538 419.808 881.338 419.448 880.186 419.448C878.146 419.448 876.058 420.528 876.058 423.24C876.058 425.856 878.074 427.032 880.114 427.032C881.362 427.032 882.586 426.672 883.498 426.144V428.52C882.394 429.048 881.146 429.312 879.682 429.312ZM885.999 429V417.48H888.567V422.112H894.327V417.48H896.895V429H894.327V424.368H888.567V429H885.999ZM905.628 429.312C902.412 429.312 899.388 427.224 899.388 423.24C899.388 419.256 902.412 417.168 905.628 417.168C908.868 417.168 911.868 419.256 911.868 423.24C911.868 427.224 908.868 429.312 905.628 429.312ZM901.98 423.24C901.98 425.496 903.468 426.96 905.628 426.96C907.788 426.96 909.276 425.496 909.276 423.24C909.276 420.984 907.788 419.52 905.628 419.52C903.468 419.52 901.98 420.984 901.98 423.24ZM919.854 429.312C916.782 429.312 913.638 427.44 913.638 423.336C913.638 419.04 916.902 417.168 919.998 417.168C921.27 417.168 922.542 417.456 923.55 418.056V420.408C922.71 419.808 921.51 419.448 920.358 419.448C918.318 419.448 916.23 420.528 916.23 423.24C916.23 425.856 918.246 427.032 920.286 427.032C921.534 427.032 922.758 426.672 923.67 426.144V428.52C922.566 429.048 921.318 429.312 919.854 429.312ZM928.931 429V419.736H924.947V417.48H935.483V419.736H931.499V429H928.931ZM937.467 429V417.48H940.035V425.016L946.203 417.48H948.435V429H945.867V421.464L939.675 429H937.467ZM445.44 456.248V453.944H454.176V456.248H445.44ZM457.524 461V444.2H471.66V461H468.924V446.72H460.284V461H457.524ZM480.566 461.312C477.35 461.312 474.326 459.224 474.326 455.24C474.326 451.256 477.35 449.168 480.566 449.168C483.806 449.168 486.806 451.256 486.806 455.24C486.806 459.224 483.806 461.312 480.566 461.312ZM476.918 455.24C476.918 457.496 478.406 458.96 480.566 458.96C482.726 458.96 484.214 457.496 484.214 455.24C484.214 452.984 482.726 451.52 480.566 451.52C478.406 451.52 476.918 452.984 476.918 455.24ZM489.296 461V449.48H495.872C498.2 449.48 499.52 450.752 499.52 452.552C499.52 453.824 498.872 454.736 497.888 455.168C498.968 455.504 499.856 456.416 499.856 457.832C499.856 459.608 498.728 461 496.064 461H489.296ZM491.864 459.056H495.464C496.496 459.056 497.288 458.696 497.288 457.592C497.288 456.416 496.4 456.104 495.512 456.104H491.864V459.056ZM491.864 454.28H495.296C496.208 454.28 496.928 453.92 496.928 452.888C496.928 451.76 496.088 451.424 495.296 451.424H491.864V454.28ZM508.275 461.312C504.747 461.312 501.747 459.296 501.747 455.24C501.747 451.064 504.891 449.168 507.579 449.168C512.163 449.168 513.747 452.864 513.003 456.2H504.315C504.627 458.264 506.619 459.128 508.755 459.128C510.123 459.128 511.419 458.792 512.403 458.312V460.52C511.347 461.024 509.859 461.312 508.275 461.312ZM504.315 454.28H510.699C510.843 453.272 510.219 451.304 507.675 451.304C505.971 451.304 504.411 452.336 504.315 454.28ZM514.42 464.096V458.888H515.98C517.396 456.416 517.876 453.488 517.804 449.48H526.828V458.888H528.508V464.096H526.084V461H516.844V464.096H514.42ZM518.692 458.888H524.26V451.592H520.228C520.132 454.688 519.652 456.848 518.692 458.888ZM536.4 461.312C532.872 461.312 529.872 459.296 529.872 455.24C529.872 451.064 533.016 449.168 535.704 449.168C540.288 449.168 541.872 452.864 541.128 456.2H532.44C532.752 458.264 534.744 459.128 536.88 459.128C538.248 459.128 539.544 458.792 540.528 458.312V460.52C539.472 461.024 537.984 461.312 536.4 461.312ZM532.44 454.28H538.824C538.968 453.272 538.344 451.304 535.8 451.304C534.096 451.304 532.536 452.336 532.44 454.28ZM543.741 461V449.48H546.309V454.112H552.069V449.48H554.637V461H552.069V456.368H546.309V461H543.741ZM564.81 457.184C563.826 457.544 562.914 457.736 561.594 457.736C559.05 457.736 557.13 456.416 557.13 453.512V449.48H559.698V453.296C559.698 454.976 560.73 455.48 562.338 455.48C563.298 455.48 564.042 455.36 564.81 455.048V449.48H567.378V461H564.81V457.184ZM576.408 461.312C572.88 461.312 569.88 459.296 569.88 455.24C569.88 451.064 573.024 449.168 575.712 449.168C580.296 449.168 581.88 452.864 581.136 456.2H572.448C572.76 458.264 574.752 459.128 576.888 459.128C578.256 459.128 579.552 458.792 580.536 458.312V460.52C579.48 461.024 577.992 461.312 576.408 461.312ZM572.448 454.28H578.832C578.976 453.272 578.352 451.304 575.808 451.304C574.104 451.304 572.544 452.336 572.448 454.28ZM589.245 461.312C586.173 461.312 583.029 459.44 583.029 455.336C583.029 451.04 586.293 449.168 589.389 449.168C590.661 449.168 591.933 449.456 592.941 450.056V452.408C592.101 451.808 590.901 451.448 589.749 451.448C587.709 451.448 585.621 452.528 585.621 455.24C585.621 457.856 587.637 459.032 589.677 459.032C590.925 459.032 592.149 458.672 593.061 458.144V460.52C591.957 461.048 590.709 461.312 589.245 461.312ZM595.561 461V449.48H598.129V454.04H600.025L603.337 449.48H606.265L602.089 455.192L606.721 461H603.769L599.977 456.224H598.129V461H595.561ZM611.503 461.312C609.415 461.312 607.471 460.16 607.471 457.784C607.471 454.832 610.207 453.92 612.607 453.92C613.567 453.92 614.695 454.064 615.583 454.256V453.848C615.583 452.408 614.527 451.4 612.559 451.4C610.879 451.4 609.463 451.832 608.431 452.288V449.936C609.343 449.624 610.999 449.168 612.847 449.168C616.087 449.168 618.151 450.728 618.151 454.208V458.336C618.151 458.984 618.535 459.176 619.015 459.176C619.255 459.176 619.543 459.104 619.783 459.032V460.88C619.303 461.072 618.727 461.168 618.151 461.168C617.143 461.168 616.303 460.784 615.871 459.896L615.847 459.824C614.719 460.76 613.303 461.312 611.503 461.312ZM610.111 457.616C610.111 458.744 611.119 459.32 612.271 459.32C613.495 459.32 614.695 458.864 615.583 457.976V456.008C614.911 455.864 613.927 455.72 613.111 455.72C611.647 455.72 610.111 456.176 610.111 457.616ZM628.921 461V457.232H626.305L623.449 461H620.497L623.689 456.944C622.057 456.368 621.121 454.976 621.121 453.368C621.121 451.28 622.657 449.48 625.561 449.48H631.489V461H628.921ZM623.713 453.392C623.713 454.52 624.553 455.168 625.969 455.168H628.921V451.616H625.969C624.553 451.616 623.713 452.264 623.713 453.392ZM645.917 461.312C642.485 461.312 639.869 459.104 639.869 454.472C639.869 450.488 641.333 447.944 643.397 446.648C646.709 444.608 649.229 445.496 650.885 443.888V446.384C649.277 447.608 647.381 447.056 644.933 448.424C643.445 449.264 642.821 450.752 642.485 452.072C643.253 450.92 644.717 450.056 646.493 450.056C649.421 450.056 651.893 452.168 651.893 455.648C651.893 459.296 649.397 461.312 645.917 461.312ZM642.461 455.696C642.461 457.472 643.637 459.104 645.869 459.104C648.173 459.104 649.301 457.472 649.301 455.696C649.301 453.92 648.173 452.288 645.869 452.288C643.661 452.288 642.461 454.088 642.461 455.696ZM660.221 461.312C656.693 461.312 653.693 459.296 653.693 455.24C653.693 451.064 656.837 449.168 659.525 449.168C664.109 449.168 665.693 452.864 664.949 456.2H656.261C656.573 458.264 658.565 459.128 660.701 459.128C662.069 459.128 663.365 458.792 664.349 458.312V460.52C663.293 461.024 661.805 461.312 660.221 461.312ZM656.261 454.28H662.645C662.789 453.272 662.165 451.304 659.621 451.304C657.917 451.304 656.357 452.336 656.261 454.28ZM671.161 461.312C669.457 461.312 667.921 460.928 666.841 460.376V458.168C667.777 458.696 669.433 459.128 670.825 459.128C672.529 459.128 673.969 458.816 673.969 457.544C673.969 456.32 672.721 456.152 671.569 456.152H669.241V454.16H671.569C672.793 454.16 673.729 453.824 673.729 452.864C673.729 451.832 672.625 451.328 670.969 451.328C669.625 451.328 668.041 451.736 667.057 452.264V450.056C668.161 449.528 669.721 449.144 671.281 449.144C674.857 449.144 676.321 450.68 676.321 452.528C676.321 453.896 675.481 454.784 674.281 455.096C675.601 455.456 676.561 456.416 676.561 457.856C676.561 459.872 674.713 461.312 671.161 461.312ZM684.659 461.312C681.443 461.312 678.419 459.224 678.419 455.24C678.419 451.256 681.443 449.168 684.659 449.168C687.899 449.168 690.899 451.256 690.899 455.24C690.899 459.224 687.899 461.312 684.659 461.312ZM681.011 455.24C681.011 457.496 682.499 458.96 684.659 458.96C686.819 458.96 688.307 457.496 688.307 455.24C688.307 452.984 686.819 451.52 684.659 451.52C682.499 451.52 681.011 452.984 681.011 455.24ZM693.389 461V449.48H704.285V461H701.717V451.736H695.957V461H693.389ZM710.667 461.312C708.579 461.312 706.635 460.16 706.635 457.784C706.635 454.832 709.371 453.92 711.771 453.92C712.731 453.92 713.859 454.064 714.747 454.256V453.848C714.747 452.408 713.691 451.4 711.723 451.4C710.043 451.4 708.627 451.832 707.595 452.288V449.936C708.507 449.624 710.163 449.168 712.011 449.168C715.251 449.168 717.315 450.728 717.315 454.208V458.336C717.315 458.984 717.699 459.176 718.179 459.176C718.419 459.176 718.707 459.104 718.947 459.032V460.88C718.467 461.072 717.891 461.168 717.315 461.168C716.307 461.168 715.467 460.784 715.035 459.896L715.011 459.824C713.883 460.76 712.467 461.312 710.667 461.312ZM709.275 457.616C709.275 458.744 710.283 459.32 711.435 459.32C712.659 459.32 713.859 458.864 714.747 457.976V456.008C714.075 455.864 713.091 455.72 712.275 455.72C710.811 455.72 709.275 456.176 709.275 457.616ZM726.213 461.312C723.141 461.312 719.997 459.44 719.997 455.336C719.997 451.04 723.261 449.168 726.357 449.168C727.629 449.168 728.901 449.456 729.909 450.056V452.408C729.069 451.808 727.869 451.448 726.717 451.448C724.677 451.448 722.589 452.528 722.589 455.24C722.589 457.856 724.605 459.032 726.645 459.032C727.893 459.032 729.117 458.672 730.029 458.144V460.52C728.925 461.048 727.677 461.312 726.213 461.312ZM732.53 461V449.48H735.098V454.112H740.858V449.48H743.426V461H740.858V456.368H735.098V461H732.53ZM752.159 461.312C748.943 461.312 745.919 459.224 745.919 455.24C745.919 451.256 748.943 449.168 752.159 449.168C755.399 449.168 758.399 451.256 758.399 455.24C758.399 459.224 755.399 461.312 752.159 461.312ZM748.511 455.24C748.511 457.496 749.999 458.96 752.159 458.96C754.319 458.96 755.807 457.496 755.807 455.24C755.807 452.984 754.319 451.52 752.159 451.52C749.999 451.52 748.511 452.984 748.511 455.24ZM766.385 461.312C763.313 461.312 760.169 459.44 760.169 455.336C760.169 451.04 763.433 449.168 766.529 449.168C767.801 449.168 769.073 449.456 770.081 450.056V452.408C769.241 451.808 768.041 451.448 766.889 451.448C764.849 451.448 762.761 452.528 762.761 455.24C762.761 457.856 764.777 459.032 766.817 459.032C768.065 459.032 769.289 458.672 770.201 458.144V460.52C769.097 461.048 767.849 461.312 766.385 461.312ZM775.462 461V451.736H771.478V449.48H782.014V451.736H778.03V461H775.462ZM783.999 461V449.48H786.567V453.32H789.711C792.615 453.32 794.271 454.976 794.271 457.16C794.271 459.32 792.615 461 789.711 461H783.999ZM786.567 458.96H789.231C790.719 458.96 791.655 458.336 791.655 457.16C791.655 455.96 790.719 455.336 789.231 455.336H786.567V458.96ZM445.536 487.96V486.136H454.104V487.96H445.536ZM465.512 493.288C459.632 493.288 456.728 488.944 456.728 484.6C456.728 480.256 459.632 475.912 465.512 475.912C471.392 475.912 474.296 480.256 474.296 484.6C474.296 488.944 471.392 493.288 465.512 493.288ZM458.768 484.6C458.768 488.056 460.952 491.368 465.512 491.368C470.072 491.368 472.256 488.056 472.256 484.6C472.256 481.144 470.072 477.832 465.512 477.832C460.952 477.832 458.768 481.144 458.768 484.6ZM487.026 496.12V493H477.042V481.48H478.962V491.224H485.274V481.48H487.194V491.224H488.898V496.12H487.026ZM496.813 493.288C493.405 493.288 490.429 491.344 490.429 487.24C490.429 483.208 493.429 481.192 496.165 481.192C500.605 481.192 502.237 484.816 501.517 488.08H492.349C492.589 490.504 494.773 491.512 497.101 491.512C498.517 491.512 499.909 491.128 500.893 490.576V492.448C499.837 493 498.325 493.288 496.813 493.288ZM492.349 486.4H499.813C499.981 485.176 499.213 482.968 496.285 482.968C494.317 482.968 492.493 484.144 492.349 486.4ZM504.37 493V481.48H506.29V486.352H512.962V481.48H514.882V493H512.962V488.128H506.29V493H504.37ZM518.432 493V481.48H520.352V486.28H522.68L526.328 481.48H528.56L524.192 487.216L529.088 493H526.832L522.608 488.056H520.352V493H518.432ZM534.067 493.288C532.027 493.288 530.011 492.208 530.011 489.784C530.011 486.808 532.747 485.896 535.219 485.896C536.227 485.896 537.451 486.04 538.411 486.256V485.848C538.411 484.12 537.235 482.968 535.123 482.968C533.347 482.968 531.931 483.4 530.923 483.832V481.96C531.835 481.648 533.419 481.192 535.315 481.192C538.387 481.192 540.331 482.872 540.331 486.088V490.6C540.331 491.296 540.715 491.488 541.219 491.488C541.507 491.488 541.819 491.416 542.107 491.32V492.88C541.651 493.048 541.147 493.144 540.667 493.144C539.755 493.144 538.939 492.784 538.579 491.824L538.555 491.752C537.403 492.712 535.939 493.288 534.067 493.288ZM531.979 489.688C531.979 491.032 533.203 491.632 534.475 491.632C535.939 491.632 537.403 491.032 538.411 489.952V487.84C537.595 487.672 536.419 487.504 535.483 487.504C533.803 487.504 531.979 488.008 531.979 489.688ZM550.003 498.28V481.48H551.731V483.4C552.763 482.224 554.179 481.192 556.387 481.192C559.675 481.192 562.147 483.784 562.147 487.24C562.147 490.696 559.675 493.288 556.387 493.288C554.179 493.288 552.763 492.256 551.923 491.272V498.28H550.003ZM551.923 488.68C552.571 490.168 554.107 491.512 556.171 491.512C558.403 491.512 560.227 489.88 560.227 487.24C560.227 484.6 558.403 482.968 556.171 482.968C554.107 482.968 552.571 484.312 551.923 485.8V488.68ZM564.909 493V481.48H566.829V489.904L573.885 481.48H575.517V493H573.597V484.576L566.541 493H564.909ZM584.441 493.288C581.417 493.288 578.273 491.392 578.273 487.288C578.273 483.088 581.513 481.192 584.513 481.192C585.809 481.192 587.081 481.48 588.065 482.128V484C587.201 483.328 585.977 482.968 584.753 482.968C582.521 482.968 580.193 484.216 580.193 487.24C580.193 490.192 582.449 491.512 584.705 491.512C585.953 491.512 587.225 491.152 588.185 490.576V492.496C587.105 493.024 585.881 493.288 584.441 493.288ZM590.901 493V481.48H592.821V486.28H595.149L598.797 481.48H601.029L596.661 487.216L601.557 493H599.301L595.077 488.056H592.821V493H590.901ZM608.3 493.288C605.18 493.288 602.156 491.176 602.156 487.24C602.156 483.304 605.18 481.192 608.3 481.192C611.444 481.192 614.444 483.304 614.444 487.24C614.444 491.176 611.444 493.288 608.3 493.288ZM604.076 487.24C604.076 489.904 605.948 491.464 608.3 491.464C610.652 491.464 612.524 489.904 612.524 487.24C612.524 484.576 610.652 483.016 608.3 483.016C605.948 483.016 604.076 484.576 604.076 487.24ZM617.198 493V481.48H623.51C625.526 481.48 627.062 482.56 627.062 484.6C627.062 485.8 626.39 486.76 625.526 487.144C626.462 487.456 627.422 488.368 627.422 489.808C627.422 491.704 626.198 493 623.702 493H617.198ZM619.118 491.32H623.438C624.638 491.32 625.502 490.96 625.502 489.688C625.502 488.32 624.47 488.008 623.51 488.008H619.118V491.32ZM619.118 486.352H623.318C624.326 486.352 625.118 485.968 625.118 484.792C625.118 483.496 624.134 483.16 623.318 483.16H619.118V486.352ZM636.323 493V481.48H638.243V489.904L645.299 481.48H646.931V493H645.011V484.576L637.955 493H636.323ZM661.832 493.288C658.808 493.288 655.664 491.392 655.664 487.288C655.664 483.088 658.904 481.192 661.904 481.192C663.2 481.192 664.472 481.48 665.456 482.128V484C664.592 483.328 663.368 482.968 662.144 482.968C659.912 482.968 657.584 484.216 657.584 487.24C657.584 490.192 659.84 491.512 662.096 491.512C663.344 491.512 664.616 491.152 665.576 490.576V492.496C664.496 493.024 663.272 493.288 661.832 493.288ZM668.292 493V481.48H670.38L674.58 487.864L678.78 481.48H680.868V493H679.044V484.312L675.3 490H673.86L670.116 484.312V493H668.292ZM691.953 493V488.968H688.713L685.569 493H683.313L686.649 488.776C684.729 488.248 683.889 486.64 683.889 485.224C683.889 483.208 685.401 481.48 688.209 481.48H693.873V493H691.953ZM685.809 485.224C685.809 486.496 686.769 487.24 688.377 487.24H691.953V483.208H688.377C686.769 483.208 685.809 483.952 685.809 485.224ZM697.424 493V481.48H705.848V483.256H699.344V493H697.424ZM715.122 488.992C714.066 489.4 713.13 489.592 711.69 489.592C709.05 489.592 707.25 488.296 707.25 485.464V481.48H709.17V485.32C709.17 487.264 710.346 487.816 712.266 487.816C713.418 487.816 714.234 487.672 715.122 487.312V481.48H717.042V493H715.122V488.992ZM726.196 493.288C722.788 493.288 719.812 491.344 719.812 487.24C719.812 483.208 722.812 481.192 725.548 481.192C729.988 481.192 731.62 484.816 730.9 488.08H721.732C721.972 490.504 724.156 491.512 726.484 491.512C727.9 491.512 729.292 491.128 730.276 490.576V492.448C729.22 493 727.708 493.288 726.196 493.288ZM721.732 486.4H729.196C729.364 485.176 728.596 482.968 725.668 482.968C723.7 482.968 721.876 484.144 721.732 486.4ZM733.753 493V481.48H735.673V486.352H742.345V481.48H744.265V493H742.345V488.128H735.673V493H733.753ZM747.815 493V481.48H749.735V489.904L756.791 481.48H758.423V493H756.503V484.576L749.447 493H747.815ZM767.563 493.288C764.155 493.288 761.179 491.344 761.179 487.24C761.179 483.208 764.179 481.192 766.915 481.192C771.355 481.192 772.987 484.816 772.267 488.08H763.099C763.339 490.504 765.523 491.512 767.851 491.512C769.267 491.512 770.659 491.128 771.643 490.576V492.448C770.587 493 769.075 493.288 767.563 493.288ZM763.099 486.4H770.563C770.731 485.176 769.963 482.968 767.035 482.968C765.067 482.968 763.243 484.144 763.099 486.4ZM781.096 493V481.48H791.608V493H789.688V483.256H783.016V493H781.096ZM800.511 493.288C797.391 493.288 794.367 491.176 794.367 487.24C794.367 483.304 797.391 481.192 800.511 481.192C803.655 481.192 806.655 483.304 806.655 487.24C806.655 491.176 803.655 493.288 800.511 493.288ZM796.287 487.24C796.287 489.904 798.159 491.464 800.511 491.464C802.863 491.464 804.735 489.904 804.735 487.24C804.735 484.576 802.863 483.016 800.511 483.016C798.159 483.016 796.287 484.576 796.287 487.24ZM814.785 493.288C811.761 493.288 808.617 491.392 808.617 487.288C808.617 483.088 811.857 481.192 814.857 481.192C816.153 481.192 817.425 481.48 818.409 482.128V484C817.545 483.328 816.321 482.968 815.097 482.968C812.865 482.968 810.537 484.216 810.537 487.24C810.537 490.192 812.793 491.512 815.049 491.512C816.297 491.512 817.569 491.152 818.529 490.576V492.496C817.449 493.024 816.225 493.288 814.785 493.288ZM821.149 493.192C820.717 493.192 820.261 493.12 819.757 492.928V491.416C820.021 491.512 820.285 491.56 820.525 491.56C822.565 491.56 823.237 487.672 823.453 481.48H831.925V493H830.005V483.256H825.325C824.941 489.16 824.125 493.192 821.149 493.192ZM841.063 493.288C837.655 493.288 834.679 491.344 834.679 487.24C834.679 483.208 837.679 481.192 840.415 481.192C844.855 481.192 846.487 484.816 845.767 488.08H836.599C836.839 490.504 839.023 491.512 841.351 491.512C842.767 491.512 844.159 491.128 845.143 490.576V492.448C844.087 493 842.575 493.288 841.063 493.288ZM836.599 486.4H844.063C844.231 485.176 843.463 482.968 840.535 482.968C838.567 482.968 836.743 484.144 836.599 486.4ZM847.28 496.12V491.272H848.816C850.256 488.728 850.832 485.776 850.784 481.48H859.376V491.272H861.056V496.12H859.184V493H849.152V496.12H847.28ZM850.904 491.272H857.456V483.208H852.632C852.536 486.664 851.96 489.064 850.904 491.272ZM868.761 493.288C865.737 493.288 862.593 491.392 862.593 487.288C862.593 483.088 865.833 481.192 868.833 481.192C870.129 481.192 871.401 481.48 872.385 482.128V484C871.521 483.328 870.297 482.968 869.073 482.968C866.841 482.968 864.513 484.216 864.513 487.24C864.513 490.192 866.769 491.512 869.025 491.512C870.273 491.512 871.545 491.152 872.505 490.576V492.496C871.425 493.024 870.201 493.288 868.761 493.288ZM878.101 493V483.256H873.853V481.48H884.245V483.256H880.021V493H878.101ZM886.424 493V481.48H892.736C894.752 481.48 896.288 482.56 896.288 484.6C896.288 485.8 895.616 486.76 894.752 487.144C895.688 487.456 896.648 488.368 896.648 489.808C896.648 491.704 895.424 493 892.928 493H886.424ZM888.344 491.32H892.664C893.864 491.32 894.728 490.96 894.728 489.688C894.728 488.32 893.696 488.008 892.736 488.008H888.344V491.32ZM888.344 486.352H892.544C893.552 486.352 894.344 485.968 894.344 484.792C894.344 483.496 893.36 483.16 892.544 483.16H888.344V486.352ZM899.573 493V481.48H901.493V489.904L908.549 481.48H910.181V493H908.261V484.576L901.205 493H899.573ZM913.729 493V481.48H915.649V489.904L922.705 481.48H924.337V493H922.417V484.576L915.361 493H913.729ZM915.673 478.696V476.968C916.873 477.76 917.857 478.024 919.033 478.024C920.209 478.024 921.193 477.76 922.393 476.968V478.696C921.313 479.464 920.185 479.704 919.033 479.704C917.881 479.704 916.753 479.464 915.673 478.696Z" fill="black"/>
<line x1="420" y1="324.5" x2="1071.01" y2="324.5" stroke="#8588B6" stroke-width="3"/>
<line x1="419" y1="96.1816" x2="1071" y2="96.1816" stroke="#393E84" stroke-width="3"/>
</svg>
