<svg width="217" height="72" viewBox="0 0 217 72" fill="none" xmlns="http://www.w3.org/2000/svg">
<rect x="2" y="2" width="213" height="68" rx="7" stroke="#393E84" stroke-width="4"/>
<path d="M23.9695 42.288C18.0895 42.288 15.1855 37.944 15.1855 33.6C15.1855 29.256 18.0895 24.912 23.9695 24.912C29.8495 24.912 32.7535 29.256 32.7535 33.6C32.7535 37.944 29.8495 42.288 23.9695 42.288ZM17.2255 33.6C17.2255 37.056 19.4095 40.368 23.9695 40.368C28.5295 40.368 30.7135 37.056 30.7135 33.6C30.7135 30.144 28.5295 26.832 23.9695 26.832C19.4095 26.832 17.2255 30.144 17.2255 33.6ZM40.9918 42.288C37.9678 42.288 34.8238 40.392 34.8238 36.288C34.8238 32.088 38.0638 30.192 41.0638 30.192C42.3598 30.192 43.6318 30.48 44.6158 31.128V33C43.7518 32.328 42.5278 31.968 41.3038 31.968C39.0718 31.968 36.7438 33.216 36.7438 36.24C36.7438 39.192 38.9998 40.512 41.2558 40.512C42.5038 40.512 43.7758 40.152 44.7358 39.576V41.496C43.6558 42.024 42.4318 42.288 40.9918 42.288ZM50.3318 42V32.256H46.0838V30.48H56.4758V32.256H52.2518V42H50.3318ZM61.6337 42.288C59.5937 42.288 57.5777 41.208 57.5777 38.784C57.5777 35.808 60.3137 34.896 62.7857 34.896C63.7937 34.896 65.0177 35.04 65.9777 35.256V34.848C65.9777 33.12 64.8017 31.968 62.6897 31.968C60.9137 31.968 59.4977 32.4 58.4897 32.832V30.96C59.4017 30.648 60.9857 30.192 62.8817 30.192C65.9537 30.192 67.8977 31.872 67.8977 35.088V39.6C67.8977 40.296 68.2817 40.488 68.7857 40.488C69.0737 40.488 69.3857 40.416 69.6737 40.32V41.88C69.2177 42.048 68.7137 42.144 68.2337 42.144C67.3217 42.144 66.5057 41.784 66.1457 40.824L66.1217 40.752C64.9697 41.712 63.5057 42.288 61.6337 42.288ZM59.5457 38.688C59.5457 40.032 60.7697 40.632 62.0417 40.632C63.5057 40.632 64.9697 40.032 65.9777 38.952V36.84C65.1617 36.672 63.9857 36.504 63.0497 36.504C61.3697 36.504 59.5457 37.008 59.5457 38.688ZM71.5924 42V30.48H77.9044C79.9204 30.48 81.4564 31.56 81.4564 33.6C81.4564 34.8 80.7844 35.76 79.9204 36.144C80.8564 36.456 81.8164 37.368 81.8164 38.808C81.8164 40.704 80.5924 42 78.0964 42H71.5924ZM73.5124 40.32H77.8324C79.0324 40.32 79.8964 39.96 79.8964 38.688C79.8964 37.32 78.8644 37.008 77.9044 37.008H73.5124V40.32ZM73.5124 35.352H77.7124C78.7204 35.352 79.5124 34.968 79.5124 33.792C79.5124 32.496 78.5284 32.16 77.7124 32.16H73.5124V35.352ZM84.7408 42V30.48H86.6608V38.904L93.7168 30.48H95.3488V42H93.4288V33.576L86.3728 42H84.7408ZM101.777 42V32.256H97.5291V30.48H107.921V32.256H103.697V42H101.777ZM110.1 42V30.48H112.02V34.512H115.572C118.38 34.512 120.036 36.12 120.036 38.256C120.036 40.392 118.38 42 115.572 42H110.1ZM112.02 40.272H115.332C117.012 40.272 118.092 39.624 118.092 38.256C118.092 36.888 117.012 36.24 115.332 36.24H112.02V40.272ZM131.907 42.288C130.275 42.288 128.739 41.928 127.659 41.4V39.576C128.643 40.104 130.275 40.512 131.667 40.512C133.491 40.512 135.171 40.176 135.171 38.688C135.171 37.272 133.779 37.032 132.627 37.032H130.107V35.256H132.627C133.923 35.256 134.931 34.872 134.931 33.768C134.931 32.496 133.563 31.944 131.763 31.944C130.395 31.944 128.907 32.328 127.851 32.856V31.056C129.003 30.528 130.443 30.168 131.979 30.168C135.195 30.168 136.851 31.488 136.851 33.504C136.851 34.896 136.011 35.808 134.715 36.096C136.011 36.432 137.091 37.416 137.091 38.904C137.091 41.088 135.099 42.288 131.907 42.288ZM143.009 42.288C140.969 42.288 138.953 41.208 138.953 38.784C138.953 35.808 141.689 34.896 144.161 34.896C145.169 34.896 146.393 35.04 147.353 35.256V34.848C147.353 33.12 146.177 31.968 144.065 31.968C142.289 31.968 140.873 32.4 139.865 32.832V30.96C140.777 30.648 142.361 30.192 144.257 30.192C147.329 30.192 149.273 31.872 149.273 35.088V39.6C149.273 40.296 149.657 40.488 150.161 40.488C150.449 40.488 150.761 40.416 151.049 40.32V41.88C150.593 42.048 150.089 42.144 149.609 42.144C148.697 42.144 147.881 41.784 147.521 40.824L147.497 40.752C146.345 41.712 144.881 42.288 143.009 42.288ZM140.921 38.688C140.921 40.032 142.145 40.632 143.417 40.632C144.881 40.632 146.345 40.032 147.353 38.952V36.84C146.537 36.672 145.361 36.504 144.425 36.504C142.745 36.504 140.921 37.008 140.921 38.688ZM160.503 42V37.968H157.263L154.119 42H151.863L155.199 37.776C153.279 37.248 152.439 35.64 152.439 34.224C152.439 32.208 153.951 30.48 156.759 30.48H162.423V42H160.503ZM154.359 34.224C154.359 35.496 155.319 36.24 156.927 36.24H160.503V32.208H156.927C155.319 32.208 154.359 32.952 154.359 34.224ZM165.975 42V30.48H172.287C174.303 30.48 175.839 31.56 175.839 33.6C175.839 34.8 175.167 35.76 174.303 36.144C175.239 36.456 176.199 37.368 176.199 38.808C176.199 40.704 174.975 42 172.479 42H165.975ZM167.895 40.32H172.215C173.415 40.32 174.279 39.96 174.279 38.688C174.279 37.32 173.247 37.008 172.287 37.008H167.895V40.32ZM167.895 35.352H172.095C173.103 35.352 173.895 34.968 173.895 33.792C173.895 32.496 172.911 32.16 172.095 32.16H167.895V35.352ZM179.124 42V30.48H181.044V35.28H183.372L187.02 30.48H189.252L184.884 36.216L189.78 42H187.524L183.3 37.056H181.044V42H179.124ZM192.524 47.568C192.116 47.568 191.708 47.52 191.276 47.4V45.744C191.612 45.84 191.948 45.888 192.284 45.888C193.58 45.888 194.516 44.952 195.26 43.08L195.692 42.024L190.22 30.48H192.26L196.604 39.816L200.492 30.48H202.532L196.868 43.728C195.668 46.512 194.204 47.568 192.524 47.568Z" fill="#393E84"/>
</svg>
